<svg width="158" height="125" viewBox="0 0 158 125" fill="none" xmlns="http://www.w3.org/2000/svg">
<g filter="url(#filter0_d_16_16)">
<path d="M151.205 14.3535L153.246 17.1335L153.534 35.9726L154 37.3127L152.913 37.5122L151.692 38.9409L150.262 41.1449L148.298 42.2856L146.722 43.5703L145.236 45.1653L143.905 45.5084L142.185 43.4818L140.998 41.4106L141.286 40.9566L142.119 40.8127L142.429 39.7382L141.93 38.1878L140.765 37.6007L139.301 37.5564L137.892 38.2541L136.394 39.6277L135.551 41.1006L135.429 44.0577L135.817 47.3802L135.807 48.9972L134.985 51.0018L134.697 53.9481L135.285 56.2295L135.817 57.5916L135.873 58.7435L134.475 62.3763L135.684 63.0631L139.689 63.3176L140.865 65.7765L141.664 67.46L141.442 68.4568L138.602 69.1987L135.03 70.0183L132.467 69.7858L127.829 70.8934L125.356 72.5989L126.077 73.6622L126.931 74.4815L127.32 76.7298L126.598 79.9198L125.29 83.0097L123.658 86.8639L121.773 91.2828L119.187 97.9281L117.002 103.145L116.769 106.899L116.825 109.347L116.581 114.231L114.506 116.922L114.04 117L111.567 116.679L110.734 116.568L108.371 116.258L104.71 115.782L99.9513 115.151L94.3265 114.419L88.0584 113.589L81.3577 112.703L74.4241 111.795L67.5012 110.886L60.7897 110L54.5216 109.181L48.8968 108.439L44.1489 107.807L40.4877 107.331L38.1246 107.021L37.2931 106.91L34.6747 106.567L33.2656 104.75L31.5572 102.558L29.838 100.354L28.129 98.1498L26.4206 95.9457L24.7123 93.7417L23.0039 91.5376L21.2956 89.3336L19.5872 87.1295L17.8788 84.9147L16.1705 82.7106L14.4506 80.4954L12.7422 78.2805L11.0339 76.0653L9.32551 73.8505L7.61647 71.6353L5.90811 69.42L4.75431 67.9363L4.12256 66.2639L4 61.8777V60.9145L5.1538 59.1424L5.70836 60.4048L6.99556 62.1214L9.18129 61.7006L10.2017 61.9886L10.956 68.0691L12.5648 70.2289L14.517 71.0924L21.1405 71.5687L25.256 70.7494L33.3658 66.7844L37.6255 65.3557L49.4074 65.599L58.8484 67.2495L73.5479 68.2242L76.3985 67.9694L84.3309 64.7797L89.1899 61.9666L92.0853 61.1581L93.9934 58.4336L95.2474 54.8894L96.3673 52.5745L97.7987 51.4672L99.1523 49.4957L100.251 46.2949L102.979 43.061L113.918 35.1864L120.308 28.5188L120.874 26.3591L124.346 23.1251L127.131 19.581L140.167 9.43609L142.773 5.23855L144.315 0.531325L144.504 0.199078L145.624 0L147.222 0.708771L147.388 4.23066L146.8 7.55313L146.734 11.0754L146.501 12.9803L147.71 14.5418L149.773 15.2175L150.672 15.1397L151.205 14.3535ZM150.694 28.5631L150.883 27.0901L150.561 26.3259L149.23 26.2262L148.675 27.5001L148.487 29.3273L149.407 29.4825L150.694 28.5631ZM94.1599 55.565L93.8823 56.2295L93.0061 56.1741L90.8096 55.5759L90.0999 54.6234L91.4752 53.4827L92.0853 53.4272L92.9621 54.6234L94.1599 55.565ZM58.8707 61.8115L56.5631 61.9998L54.4769 60.715L58.8815 58.9984L60.0685 58.223L61.3557 56.6392L62.387 58.0016L61.2447 60.1391L60.4349 61.0584L58.8707 61.8115ZM36.5936 60.8036L36.0722 61.0473L35.5177 59.2198L35.5509 58.6438L36.9823 57.8134L37.8585 59.3083L36.5936 60.8036ZM77.4081 64.5692L77.4196 65.7211L74.2575 65.3888L73.4145 65.9867L70.8184 65.6545L68.2779 64.824L69.9977 63.4396L74.4796 61.8115L76.343 63.2956L77.4081 64.5692Z" fill="#F99B27"/>
</g>
<defs>
<filter id="filter0_d_16_16" x="0" y="0" width="158" height="125" filterUnits="userSpaceOnUse" color-interpolation-filters="sRGB">
<feFlood flood-opacity="0" result="BackgroundImageFix"/>
<feColorMatrix in="SourceAlpha" type="matrix" values="0 0 0 0 0 0 0 0 0 0 0 0 0 0 0 0 0 0 127 0" result="hardAlpha"/>
<feOffset dy="4"/>
<feGaussianBlur stdDeviation="2"/>
<feComposite in2="hardAlpha" operator="out"/>
<feColorMatrix type="matrix" values="0 0 0 0 0 0 0 0 0 0 0 0 0 0 0 0 0 0 0.25 0"/>
<feBlend mode="normal" in2="BackgroundImageFix" result="effect1_dropShadow_16_16"/>
<feBlend mode="normal" in="SourceGraphic" in2="effect1_dropShadow_16_16" result="shape"/>
</filter>
</defs>
</svg>
