<svg width="57" height="61" viewBox="0 0 57 61" fill="none" xmlns="http://www.w3.org/2000/svg">
<g filter="url(#filter0_d_14_29)">
<path d="M48.1278 36.2874L45.5479 40.2973L42.2468 45.4328L38.4994 51.2634L36.154 51.3055L34.3385 50.9686L33.0862 49.9794L30.5172 48.8954L27.6192 48.8219L24.8591 49.8319L20.1884 51.0845L15.9635 51.495L12.5562 52.1894L9.74298 53L7.19544 52.5577L4.99777 51.8316L4.5099 45.6223L4 38.887L4.05313 33.6143L4.82802 30.7096L5.51803 29.573L9.50974 25.5631L10.8898 23.9216L15.4432 17.2701L19.3604 11.5555L22.2798 7.2932L23.1817 6.45141L24.4134 5.63049L25.2835 5.87233L30.9734 9.98752L31.9711 9.87158L33.8714 8.59813L35.5909 4.19902L36.8012 2.58898L37.3215 2.63105L40.973 1.39967L44.2741 0L44.6991 1.45235L49.6879 7.36675L51.3336 10.2714L53 15.5968L52.1292 18.5542L50.8237 20.4905L48.9027 22.2059L42.2254 26.4261L34.8057 29.1099L30.0708 34.4879L26.5469 34.1195L27.0886 36.1506L28.3941 36.3822L30.4531 35.9926L34.54 34.4352L38.1599 33.6879L42.0771 33.6352L45.6224 34.309L48.1278 36.2874Z" fill="#F99B27"/>
</g>
<defs>
<filter id="filter0_d_14_29" x="0" y="0" width="57" height="61" filterUnits="userSpaceOnUse" color-interpolation-filters="sRGB">
<feFlood flood-opacity="0" result="BackgroundImageFix"/>
<feColorMatrix in="SourceAlpha" type="matrix" values="0 0 0 0 0 0 0 0 0 0 0 0 0 0 0 0 0 0 127 0" result="hardAlpha"/>
<feOffset dy="4"/>
<feGaussianBlur stdDeviation="2"/>
<feComposite in2="hardAlpha" operator="out"/>
<feColorMatrix type="matrix" values="0 0 0 0 0 0 0 0 0 0 0 0 0 0 0 0 0 0 0.25 0"/>
<feBlend mode="normal" in2="BackgroundImageFix" result="effect1_dropShadow_14_29"/>
<feBlend mode="normal" in="SourceGraphic" in2="effect1_dropShadow_14_29" result="shape"/>
</filter>
</defs>
</svg>
