<svg width="142" height="141" viewBox="0 0 142 141" fill="none" xmlns="http://www.w3.org/2000/svg">
<g filter="url(#filter0_d_14_23)">
<path d="M115.996 1.25269L116.133 1.6818L116.156 2.08324L115.541 2.45694L115.136 2.67379L114.651 3.70499L113.751 4.40403L113.601 4.61629L113.608 4.80779L114.218 5.12383L114.422 5.42375L114.516 5.82512L114.244 7.26009L114.073 8.35824L113.848 9.79546L113.857 10.3422L114.089 10.9974L114.318 11.5073L114.389 12.084L114.308 13.5028L114.588 14.3218L114.812 15.0762L114.278 16.0151L114.049 16.8433L113.906 18.0268L113.848 18.7719L113.504 19.4594L113.055 20.103L112.549 20.5045L111.925 20.8505L111.206 21.305L110.623 22.5208L109.363 23.5313L109.099 23.8773L108.981 24.6848L109.011 25.8036L109.233 26.6918L109.837 28.0022L110.366 29.4417L110.51 30.1639L110.713 30.4384L111.458 30.909L112.745 31.5457L112.984 31.8064L113.622 32.7938L114.227 34.5609L114.417 35.7283L115.596 36.6557L116.685 37.5093L117.73 38.2591L118.865 39.0711L119.03 39.3203L119.406 41.039L119.783 42.7415L120.195 44.6125L120.611 46.4857L121.101 48.6843L121.379 49.9278L121.714 51.4343L122.109 53.1967L121.473 53.5705L120.757 54.0481L121.279 54.9524L122.287 56.4219L122.895 57.6054L123.108 58.1199L123.582 59.5848L123.968 61.0013L124.068 61.4604L124.209 62.5493L124.035 65.5391L124.313 69.3203L124.687 71.1982L124.098 72.8892L123.594 74.5018L123.626 75.3115L123.903 76.5735L124.176 77.5055L124.546 77.9946L124.474 79.561L124.319 80.1285L123.187 80.9475L121.931 81.6973L121.584 82.3317L121.485 83.0376L121.651 83.6121L122.514 84.8809L123.811 86.7795L125.237 88.865L125.355 89.3888L125.413 90.8652L126.007 92.7177L126.65 93.5252L126.891 94.1273L127.346 94.5587L127.799 94.8748L128.081 94.9117L129.683 94.4088L132.423 95.2392L135.015 96.0837L135.205 96.2497L135.771 97.3178L136.698 99.0596L137.385 100.451L138 101.694L134.641 103.835L131.279 105.971L127.919 108.103L124.56 110.228L121.201 112.35L117.839 114.468L114.479 116.581L111.12 118.687L108.891 120.083L107.474 121.315L105.696 122.854L104.017 124.381L102.697 125.583L100.986 127.133L100.124 127.915L98.2164 129.643L97.643 129.95L95.1159 130.46L92.7969 130.926L90.6559 131.357L89.1924 131.653L87.7751 131.936L85.7151 132.338L84.2446 132.626L82.6585 132.935L82.4112 132.988L82.1244 133L81.9094 132.988L81.4701 132.818L80.9407 132.414L80.587 132.206L80.4991 131.888L80.7049 131.464L80.9615 131.083L81.0586 130.783L81.2343 130.555L81.4609 130.37L81.4701 130.109L81.2829 129.68L81.1187 129.087L81.1257 128.01L81.1303 127.65V127.521L80.6563 127.108L79.7616 126.651L78.9384 126.384L78.5639 126.291L77.6552 126.13L76.3998 125.841L75.9582 125.643L75.1444 124.64L74.7444 124.383L72.86 124.213L72.2335 124.047L71.7202 123.809L71.2809 123.486L71.0335 122.935L70.9595 122.485L70.7953 122.27L68.7168 121.181L68.1874 120.812L67.9076 120.468L67.8984 119.959L67.9538 119.333L67.866 118.777L67.7781 118.505L66.8278 117.845L64.7031 116.364L62.5783 114.883L60.4535 113.4L58.3287 111.914L56.2039 110.426L54.0792 108.936L51.9544 107.443L49.8296 105.948L47.7048 104.449L45.5778 102.952L43.4553 101.447L41.3305 99.9432L39.2057 98.4368L37.0786 96.9257L34.9538 95.4123L32.829 93.8966L31.0326 92.6162L29.0511 91.2598L27.5784 90.2654L26.1171 89.2734L24.5449 88.2099L23.523 87.5501L22.3046 86.7611L21.0838 85.9698L19.863 85.1785L18.6423 84.3872L17.4215 83.5959L16.2008 82.8023L14.9823 82.0087L13.7615 81.2128L12.5407 80.4169L11.3223 79.621L10.1015 78.8251L8.88074 78.0268L7.66001 77.2287L6.43921 76.4281L5.21847 75.6276L4 74.8271V73.346V72.1394V70.363V68.8174V67.2717V66.2059V65.0939L4.03239 64.591L4.15255 64.3764L4.81149 64.0143L5.8427 63.1884L6.22421 62.8215L6.71205 62.4501L8.43911 61.3312L8.79748 61.0175L10.4761 59.7279L10.8691 59.5387L11.7708 59.4118L12.1477 59.1696L12.654 58.6528L13.3985 58.0622L13.8817 57.7807L13.9974 57.73L14.3072 57.6885L15.8585 57.8638L16.5105 57.9953L17.2897 58.1061L17.5325 58.0299L17.7406 57.8454L18.0342 57.4324L18.0966 56.941L18.1151 56.5119L18.1614 56.3251L18.2978 56.2397L18.6376 56.272L19.0908 56.3296L20.0179 56.3112L20.3324 56.2512L21.3843 56.159L22.871 55.8798L24.0502 55.5153L24.9889 55.2269L25.9946 54.468L26.7322 53.6674L27.4974 52.4724L28.1055 51.4343L29.3378 50.786L30.3667 50.3915L30.9563 50.2369L32.2927 49.6878L33.4232 48.8574L34.4845 48.0776L35.296 47.9738L36.3225 47.8446L36.5514 47.6992L36.8104 47.4224L36.8243 46.9333L36.5145 46.5896L36.1399 46.4096L35.874 46.2112L35.6105 46.1743L35.4694 45.939L35.548 45.5053L35.5873 45.1039L35.7561 44.7025L35.7099 44.135L35.4463 43.5674L35.3653 43.1591L35.3839 42.7531L35.5134 42.437L35.8926 42.2271L36.3341 42.1463L36.9538 42.2478L38.0243 42.1117L40.7641 41.1289L40.9536 40.8267L41.1293 40.1462L41.3258 39.5487L41.6103 39.3479L41.7651 39.3041L42.6784 39.1426L43.9709 38.9165L44.4564 38.8843L45.8668 38.9488L46.8933 38.9973L48.5534 39.0757L49.7325 39.115L50.7591 39.1495L52.0677 39.1957L52.389 39.0572V38.6212L52.1532 37.8092L52.2966 37.3017L52.8006 36.831L53.4295 36.305L53.1358 35.6637L52.6342 35.2346L51.9336 34.7178L51.5706 34.5079L50.9348 33.8827L50.5463 33.1698L50.2828 31.6657L49.7996 30.8214L49.4481 29.7785L49.7603 27.8614L49.2932 26.7011L49.2215 26.1981L49.217 25.6052L49.3603 24.5786L49.2678 23.1322L48.7175 21.6372L48.9765 21.1273L49.0967 20.8621L49.0574 20.6337L48.5557 20.1585L48.3429 19.764L48.4539 19.3949L48.7152 18.8573L48.6921 18.6312L47.8806 17.976L46.5118 16.9125L46.128 16.4465L45.9407 15.8628L47.2517 16.0128L47.9291 15.9413L49.4828 15.2399L50.7174 14.2918L51.677 13.8096L52.5209 12.7692L53.2861 12.1117L54.3913 11.4012L57.5796 9.86699L58.0674 9.85545L59.1171 10.2038L60.0304 10.0954L60.6547 9.55785L61.3275 8.2613L62.3702 7.47003L63.6858 6.67644L65.4753 5.91742L66.6476 5.21839L68.5018 4.61165L73.1559 4.2264L75.5467 3.88269L77.172 3.96112L78.8136 2.84916L79.6343 2.48229L83.188 2.39696L84.8643 1.5826H91.2178L91.9946 1.85485L92.7576 2.29312L94.057 3.34741L94.7044 3.57812L95.5436 3.35896L97.495 2.36007L99.6961 1.83866L100.894 1.24347L101.402 0.373702L102.434 0.0530843L103.014 0.722059L105.296 1.39575L106.697 1.20193L107.312 0.998957L107.09 0L108.572 0.265281L109.71 0.747475L110.9 1.71179L111.673 1.90329L113.078 1.46953L115.996 1.25269Z" fill="#F99B27"/>
</g>
<defs>
<filter id="filter0_d_14_23" x="0" y="0" width="142" height="141" filterUnits="userSpaceOnUse" color-interpolation-filters="sRGB">
<feFlood flood-opacity="0" result="BackgroundImageFix"/>
<feColorMatrix in="SourceAlpha" type="matrix" values="0 0 0 0 0 0 0 0 0 0 0 0 0 0 0 0 0 0 127 0" result="hardAlpha"/>
<feOffset dy="4"/>
<feGaussianBlur stdDeviation="2"/>
<feComposite in2="hardAlpha" operator="out"/>
<feColorMatrix type="matrix" values="0 0 0 0 0 0 0 0 0 0 0 0 0 0 0 0 0 0 0.25 0"/>
<feBlend mode="normal" in2="BackgroundImageFix" result="effect1_dropShadow_14_23"/>
<feBlend mode="normal" in="SourceGraphic" in2="effect1_dropShadow_14_23" result="shape"/>
</filter>
</defs>
</svg>
