<svg width="159" height="142" viewBox="0 0 159 142" fill="none" xmlns="http://www.w3.org/2000/svg">
<g filter="url(#filter0_d_18_6)">
<path d="M121.824 4.82042L122.005 5.25863L122.412 6.4714L123.442 9.55223L124.345 11.9601L125.445 15.2888L125.79 16.5636L125.936 17.4444L127.537 21.0918L128.488 24.0795L129.182 26.5052L130.163 30.0375L130.588 31.268L129.894 31.9099L128.505 34.1983L127.024 41.4443L124.906 47.0791L124.667 50.598L124.327 51.864L123.319 53.6434L122.098 55.383L119.927 54.4845L116.39 51.4213L114.33 48.5088L112.119 46.6232L110.032 44.1223L109.461 42.3207L109.483 41.161L108.573 38.3325L107.896 36.9914L105.349 33.977L104.62 32.3658L104.062 31.6531L103.501 30.6351L102.577 26.7L101.569 24.1946L100.419 24.8896L100.622 25.9431L99.6185 27.3993L99.0129 29.0858L99.4771 30.4625L101.56 32.5561L101.98 33.4724L102.466 35.4509L102.387 38.1377L102.723 39.0452L104.283 41.037L104.841 42.219L105.177 43.237L105.694 44.1577L107.241 45.8839L109.466 49.1683L111.575 51.3815L113.1 52.4482L113.746 53.515L113.892 56.2638L113.777 57.5741L115.116 60.0395L115.612 61.2833L116.903 62.297L117.495 63.4523L118.039 65.3335L118.857 70.8797L119.98 72.2386L123.451 79.4935L126.378 84.0659L127.793 87.4743L129.956 91.6085L134.187 100.656L136.703 103.436L137.707 104.998L139.528 106.198L141.501 107.933L139.621 107.765L139.144 107.867L138.485 108.163L138.171 109.217L138.034 110.075L138.264 114.612L138.781 116.923L140.435 121.283L141.669 122.589L142.27 123.434L143.11 124.05L147.032 125.537L149.327 128.671L154.483 132.628L154.987 133.721L155 133.973L150.928 133.978H146.855H142.783H138.71H134.643L130.566 133.982H126.498H122.426H118.353H114.281H110.209H106.141L102.068 133.987H97.9958H93.9236H89.8511H87.5297L87.018 133.901L86.195 133.902L85.372 133.903L84.7353 134H83.2893H78.5495H73.8051H69.0649L64.3248 133.996H59.585H54.8448H50.1047H45.3649L40.6247 133.991H35.8803H31.1402H26.4003H21.6602H16.9201L12.1757 133.987H7.43581V130.995V127.993V124.988V121.982V118.968V115.949V112.926V109.898V106.862V103.825V100.78V97.7257V94.6715V91.6085V88.5411V85.4692V82.3883V79.3032V76.2136V73.1195V70.0122V66.9049V63.7887V60.6681V57.5387V54.4048V51.2621V48.1148V44.9588V41.7985V38.6292V35.4554L7.32947 34.8622L6.63994 32.6978L6.01625 29.9446L5.33535 26.554L5.2471 25.4517L4.10633 21.9461L4 20.9501L4.28742 20.2418L6.16226 17.2807L6.72819 15.8376L7.20128 14.1069L7.36051 12.6994L6.8078 10.5393L6.16226 8.59611L5.94554 6.60419L5.85271 4.64333L6.81239 3.30209L7.9618 2.04501L8.3909 1.27491L9.0718 0.407274L9.54921 0L10.4822 1.76175L12.4277 2.06271L18.7685 0.495753L25.768 2.07608L29.6281 2.67801L35.5797 4.01925L39.2009 6.4094L40.1959 6.7105L42.8002 6.66173L44.5069 8.07375L51.2987 8.75105L54.9245 10.3046L56.9804 11.544L58.2143 11.9247L59.3062 11.8628L60.7786 11.398L62.6402 10.526L64.6608 9.31313L68.8571 6.19259L70.3428 5.64375L71.3111 5.78977L72.4916 5.74547L72.9825 4.90012L73.6059 4.32021L73.9951 3.6606L74.6317 2.86389L76.8161 2.64262L81.1892 1.27923L80.6983 1.92547L76.7143 3.45257L78.421 3.64291L80.1677 3.12068L82.1618 2.78864L82.5245 2.13795L82.7852 0.920723L83.1655 0.748087L84.5451 0.978268L88.644 2.8551L89.6655 2.8905L92.5529 1.86792L93.1674 1.65111L94.1047 2.21765L96.2362 4.55039L95.4932 4.50163L93.2116 2.50092L93.0082 3.50134L91.7082 5.25417L93.3309 6.01104L94.6531 6.29431L95.3607 7.27257L95.8071 8.14021L97.1116 7.75955L98.0446 6.57771L97.558 5.9181L97.2309 5.23647L97.6554 5.21878L98.562 5.78086L101.157 8.02512L102.033 8.4898L103.041 8.41024L105.15 7.78157L105.738 7.87896L108.568 7.05131L108.9 7.65769L109.368 8.25962L111.65 7.58691L115.227 7.59569L118.159 6.86544L121.554 5.08599L121.824 4.82042Z" fill="#F99B27"/>
</g>
<defs>
<filter id="filter0_d_18_6" x="0" y="0" width="159" height="142" filterUnits="userSpaceOnUse" color-interpolation-filters="sRGB">
<feFlood flood-opacity="0" result="BackgroundImageFix"/>
<feColorMatrix in="SourceAlpha" type="matrix" values="0 0 0 0 0 0 0 0 0 0 0 0 0 0 0 0 0 0 127 0" result="hardAlpha"/>
<feOffset dy="4"/>
<feGaussianBlur stdDeviation="2"/>
<feComposite in2="hardAlpha" operator="out"/>
<feColorMatrix type="matrix" values="0 0 0 0 0 0 0 0 0 0 0 0 0 0 0 0 0 0 0.25 0"/>
<feBlend mode="normal" in2="BackgroundImageFix" result="effect1_dropShadow_18_6"/>
<feBlend mode="normal" in="SourceGraphic" in2="effect1_dropShadow_18_6" result="shape"/>
</filter>
</defs>
</svg>
