<svg width="112" height="113" viewBox="0 0 112 113" fill="none" xmlns="http://www.w3.org/2000/svg">
<g filter="url(#filter0_d_24_8)">
<path d="M67.762 3.04197V3.14023L68.1147 4.08114L68.9904 7.57668L69.491 8.01871L70.0598 8.38913L70.4616 8.90681L70.621 9.4283L70.5718 10.2369L70.5907 11.1742L70.8256 11.8922L71.1517 12.4363L71.4551 12.7083L71.9101 12.7348L72.4561 12.8671L72.824 13.4075L73.9955 17.3489L74.1055 17.8627L74.5984 18.029L75.4061 17.9534L76.2365 18.3615L77.1238 18.9964L77.9581 20.1943L78.5191 20.387L80.2786 20.2094L82.6825 20.4021L83.8086 21.0181L83.695 21.3998L82.8267 21.823L81.2985 22.3218L80.8472 23.1646L80.5931 24.2566L80.6387 24.8688L81.0141 25.5415L82.0909 26.8791L82.1516 27.3629L82.3451 28.0355L82.5459 28.4965L82.3224 29.3846L81.3441 30.0005L80.0585 30.6656L77.4765 33.6282L77.283 34.2669L77.2983 36.0128L77.0405 36.5115L76.2251 36.504L75.5882 36.4133L75.554 37.0217L75.1483 37.838L74.9171 38.5445L75.865 40.2111L76.0356 41.0954L75.884 41.9002L75.0041 43.2833L74.4848 44.2129L74.61 44.4208L75.2962 44.7911L77.4272 47.8255L78.1134 48.8912L79.0159 48.6115L79.3534 48.6304L79.6149 48.8005L79.778 49.1595V49.613L79.5505 50.2931L80.6994 50.569L81.1127 51.2568L82.4513 53.6073L82.402 54.3064L81.7612 55.4136L81.7535 56.1467L81.8901 56.8041L82.0986 57.0346L84.0741 57.1291L84.9121 57.3936L86.9635 58.5878L89.2991 60.4205L91.2063 61.9207L92.833 63.1942L94.5773 63.1036L95.0513 63.334L95.491 63.7308L95.9916 64.7776L96.9888 67.1394L97.8381 67.9217L99.1462 69.8073L100.375 71.5721L99.5672 73.9679L98.7747 76.4544V79.6513V81.3669L100.443 81.4387L102.297 81.5219L102.312 83.5662L102.328 85.6181L102.343 87.9535L102.889 88.0518L103.753 88.5543L104.125 89.3102L104.587 89.722L105.152 89.79L105.706 90.1603L106.256 90.8368L106.457 91.3432L106.309 91.6946L106.427 92.3068L106.809 93.1835L107.276 93.5953L108 94.1017L107.018 94.3928L105.956 94.1697L103.693 93.1457L102.957 93.1155L101.998 93.5047L101.956 93.8524L99.5634 92.7073L98.7025 92.4768L98.3917 92.4542L97.0191 92.4655L95.0663 92.6733L93.9175 93.1382L93.1211 93.6293L92.7571 94.1131L92.6282 94.3738L92.0063 95.7984L91.2859 97.6236L90.5391 99.2636L89.0868 101.569L88.2829 102.631L86.5578 104.603L84.6922 105L80.3656 104.611L75.5693 104.176L70.7953 103.749L67.2424 103.428L66.9695 103.322L63.4546 100.503L60.679 98.2699L57.2095 95.4773L53.6681 92.6167L50.0735 89.7107L47.4609 87.5945L44.291 84.8661L41.4056 82.3758L39.1267 80.4032L36.2032 78.6801L33.9207 77.3272L30.5915 75.3585L27.9336 73.7827L25.6547 72.4298L22.1473 70.3439L20.9833 69.7771L17.3468 69.078L13.9001 68.4885L10.3322 67.8762L7.95861 67.4682L9.52446 65.9793L9.04286 64.6415L7.90168 64.8872L6.85122 65.2047L6.21432 63.1224L7.02572 62.8617L6.27496 60.1372L5.50522 57.3256L4.7621 54.6011L4 51.8085L7.01438 50.0135L9.26665 48.672L12.4176 46.7901L15.4549 44.9725L18.348 43.2379L21.5368 41.3221L24.3881 39.6064L27.0007 38.9074L27.5542 38.367L28.745 36.0165L29.7649 34.0062L29.8142 33.5413L29.8179 30.6807L29.9961 27.3138L30.3337 25.5112L30.9213 23.9128L31.4599 22.745L31.5166 21.6529L31.4446 20.542L30.8873 18.8604L30.3071 17.1032L30.3714 15.4103L30.4777 14.5033L30.8417 13.0485L31.4636 11.9828L32.131 11.3252L34.6108 10.6451L36.0857 10.2407L38.0575 8.3513L39.229 7.22518L40.8596 5.4416L42.0614 4.12647L42.1563 3.66921V3.49162L43.1876 3.22338L45.0948 1.62489L46.2212 0.132275L46.5776 0L47.5822 0.487468L48.3026 0.623433L49.9597 0.0566233L50.9456 0.355193L51.7759 0.733104L52.2386 0.759513L54.4642 1.68913L55.0217 1.80249L56.1669 1.91585L57.8769 1.96878L58.9804 1.36034L59.7575 0.774621L60.3037 0.789728L60.8343 0.929614L61.2819 1.17894L61.6573 1.61728L61.8355 2.24464L61.7635 4.24363L61.9302 4.76893L62.2336 5.14684L62.6166 5.21857L63.0829 4.78403L63.8943 4.15299L64.8955 3.46521L65.6386 2.83416L66.067 2.59602L66.7381 2.63004L67.3942 2.7396L67.762 3.04197Z" fill="#F99B27"/>
</g>
<defs>
<filter id="filter0_d_24_8" x="0" y="0" width="112" height="113" filterUnits="userSpaceOnUse" color-interpolation-filters="sRGB">
<feFlood flood-opacity="0" result="BackgroundImageFix"/>
<feColorMatrix in="SourceAlpha" type="matrix" values="0 0 0 0 0 0 0 0 0 0 0 0 0 0 0 0 0 0 127 0" result="hardAlpha"/>
<feOffset dy="4"/>
<feGaussianBlur stdDeviation="2"/>
<feComposite in2="hardAlpha" operator="out"/>
<feColorMatrix type="matrix" values="0 0 0 0 0 0 0 0 0 0 0 0 0 0 0 0 0 0 0.25 0"/>
<feBlend mode="normal" in2="BackgroundImageFix" result="effect1_dropShadow_24_8"/>
<feBlend mode="normal" in="SourceGraphic" in2="effect1_dropShadow_24_8" result="shape"/>
</filter>
</defs>
</svg>
