<svg width="136" height="152" viewBox="0 0 136 152" fill="none" xmlns="http://www.w3.org/2000/svg">
<g filter="url(#filter0_d_20_6)">
<path d="M127.662 43.6531L123.292 47.7084L122.262 48.1508L116.579 49.826L104.961 53.2599L97.1768 55.5562L87.2184 58.4848L78.9513 60.9287L70.7682 63.3304L63.1839 65.5636L67.5118 70.262L74.1189 77.4356L78.5313 82.2072L83.7311 88.338L88.3737 93.8053L93.301 99.5886L89.8445 101.548L84.1511 104.771L83.5734 105.361L83.0797 105.961L80.7266 111.703L78.8776 116.222L78.237 116.78L70.2957 118.444L62.2594 120.109L57.1962 121.173L55.6728 122.331L52.374 127.946L48.9605 133.719L43.267 138.438L36.9427 143.663L35.3776 144L30.8081 143.199L22.9924 141.83L15.4395 140.503L10.2712 139.607L4 138.501L4.91429 134.087L4.66167 131.696L6.15365 123.838L7.02562 120.119L7.45584 117.37L9.62038 111.797L9.35751 109.975L9.80888 103.539L9.58833 102.296L10.5764 98.7772L12.4248 93.6684L14.2316 89.2545L14.883 87.2743L16.7321 83.0816L18.4023 77.9307L17.5194 75.1075L17.2572 74.5597L17.9291 71.3151L17.9086 71.2942L18.728 65.9851L19.1691 63.1198L20.1668 59.3171L21.9319 56.0937L21.1125 48.4986L21.2067 44.3902L22.3095 39.7131L21.7004 34.2249L22.2153 26.3877L22.3307 25.6609L22.9718 24.7129L23.4655 24.2178L27.1003 22.585L28.6544 22.3742L31.8269 23.1116L33.6445 24.755L36.6804 29.4003L41.4077 30.7488L43.3087 32.0656L45.8932 34.52L49.0548 35.4153L59.0555 36.9426L67.0283 31.7811L73.7727 27.4094L81.4306 22.4375L86.6407 19.0453L95.5278 13.2623L101.389 9.60688L109.09 4.77194L116.695 0L118.806 7.78477L120.865 15.3796L122.998 23.2171L125.077 30.8118L122.83 31.5387L124.594 37.3432L127.504 36.4582L130.666 35.7734L132 39.5025L127.662 43.6531Z" fill="#F99B27"/>
</g>
<defs>
<filter id="filter0_d_20_6" x="0" y="0" width="136" height="152" filterUnits="userSpaceOnUse" color-interpolation-filters="sRGB">
<feFlood flood-opacity="0" result="BackgroundImageFix"/>
<feColorMatrix in="SourceAlpha" type="matrix" values="0 0 0 0 0 0 0 0 0 0 0 0 0 0 0 0 0 0 127 0" result="hardAlpha"/>
<feOffset dy="4"/>
<feGaussianBlur stdDeviation="2"/>
<feComposite in2="hardAlpha" operator="out"/>
<feColorMatrix type="matrix" values="0 0 0 0 0 0 0 0 0 0 0 0 0 0 0 0 0 0 0.25 0"/>
<feBlend mode="normal" in2="BackgroundImageFix" result="effect1_dropShadow_20_6"/>
<feBlend mode="normal" in="SourceGraphic" in2="effect1_dropShadow_20_6" result="shape"/>
</filter>
</defs>
</svg>
