<svg width="143" height="119" viewBox="0 0 143 119" fill="none" xmlns="http://www.w3.org/2000/svg">
<g filter="url(#filter0_dd_14_2)">
<path d="M28.8026 59.1044L26.8393 60.5847L17.3638 54.2343L11.9595 52.7529L4 42.5062L7.07265 7.05187L9.62792 2.49449L11.5528 0.663453L15.9562 0L21.3243 4.44205L19.9168 27.2337L26.9884 42.5847L31.5409 54.7789L28.8026 59.1044ZM133.781 79.1293L139 94.4803L138.962 106.051L136.741 109.714L132.078 107.299L123.49 98.1031L107.166 89.1429L114.679 88.4022L119.048 89.2987L123.675 88.4806L126.563 83.4156L127.154 80.4158L131.226 77.9997L133.781 79.1293ZM62.3374 104.181L69.6304 111L49.3464 108.194L46.1631 102.039L46.014 97.5193L53.6029 98.4931L62.3374 104.181Z" fill="#F99B27"/>
</g>
<defs>
<filter id="filter0_dd_14_2" x="0" y="0" width="143" height="119" filterUnits="userSpaceOnUse" color-interpolation-filters="sRGB">
<feFlood flood-opacity="0" result="BackgroundImageFix"/>
<feColorMatrix in="SourceAlpha" type="matrix" values="0 0 0 0 0 0 0 0 0 0 0 0 0 0 0 0 0 0 127 0" result="hardAlpha"/>
<feOffset dy="4"/>
<feGaussianBlur stdDeviation="2"/>
<feComposite in2="hardAlpha" operator="out"/>
<feColorMatrix type="matrix" values="0 0 0 0 0 0 0 0 0 0 0 0 0 0 0 0 0 0 0.25 0"/>
<feBlend mode="normal" in2="BackgroundImageFix" result="effect1_dropShadow_14_2"/>
<feColorMatrix in="SourceAlpha" type="matrix" values="0 0 0 0 0 0 0 0 0 0 0 0 0 0 0 0 0 0 127 0" result="hardAlpha"/>
<feOffset dy="4"/>
<feGaussianBlur stdDeviation="2"/>
<feComposite in2="hardAlpha" operator="out"/>
<feColorMatrix type="matrix" values="0 0 0 0 0 0 0 0 0 0 0 0 0 0 0 0 0 0 0.25 0"/>
<feBlend mode="normal" in2="effect1_dropShadow_14_2" result="effect2_dropShadow_14_2"/>
<feBlend mode="normal" in="SourceGraphic" in2="effect2_dropShadow_14_2" result="shape"/>
</filter>
</defs>
</svg>
