<svg width="163" height="153" viewBox="0 0 163 153" fill="none" xmlns="http://www.w3.org/2000/svg">
<g filter="url(#filter0_d_20_4)">
<path d="M121.341 10.6532L120.938 14.0976L123.538 24.3744L129.347 35.5771L134.117 44.6374L134.723 48.8928L130.359 48.285L127.036 46.5774L120.648 44.7823L108.307 56.7959L100.851 63.3376L100.648 65.5674L110.59 68.0851L117.902 68.0277L122.989 66.2617L127.295 69.0701L130.128 76.4802L131.255 82.5016L138.019 103.894L143.625 111.102L150.619 123.839L153.221 130.439L154.722 135.968L159 144.132L144.897 144.334L127.122 144.624L112.7 144.798L96.4281 145L89.2608 136.287L86.8618 126.734L84.2598 116.921L77.1208 102.909L53.2482 99.5225L40.5613 97.6991L19.6646 95.0356L4 93.0382L17.1791 77.9282L23.3055 69.7936L34.3748 52.1641L40.0691 39.5719L45.5605 25.59L50.3005 14.7054L51.2831 12.708L54.0296 9.00292L60.0979 5.21041L68.8563 1.65023L83.7394 0.0865751L94.2019 0L96.5728 0.174034L103.161 1.93999L121.341 10.6532ZM145.417 44.0296L140.763 46.1145L137.643 45.2169L134.637 40.2088L129.694 27.7614L132.383 23.1005L132.294 21.1031L132.845 19.5978L134.376 18.6428L135.965 12.7663L138.105 10.9712L141.573 14.9369L151.342 29.2668L151.284 35.1141L150.706 37.4587L145.417 44.0296Z" fill="#F99B27"/>
</g>
<defs>
<filter id="filter0_d_20_4" x="0" y="0" width="163" height="153" filterUnits="userSpaceOnUse" color-interpolation-filters="sRGB">
<feFlood flood-opacity="0" result="BackgroundImageFix"/>
<feColorMatrix in="SourceAlpha" type="matrix" values="0 0 0 0 0 0 0 0 0 0 0 0 0 0 0 0 0 0 127 0" result="hardAlpha"/>
<feOffset dy="4"/>
<feGaussianBlur stdDeviation="2"/>
<feComposite in2="hardAlpha" operator="out"/>
<feColorMatrix type="matrix" values="0 0 0 0 0 0 0 0 0 0 0 0 0 0 0 0 0 0 0.25 0"/>
<feBlend mode="normal" in2="BackgroundImageFix" result="effect1_dropShadow_20_4"/>
<feBlend mode="normal" in="SourceGraphic" in2="effect1_dropShadow_20_4" result="shape"/>
</filter>
</defs>
</svg>
