<svg width="144" height="148" viewBox="0 0 144 148" fill="none" xmlns="http://www.w3.org/2000/svg">
<g filter="url(#filter0_d_14_25)">
<path d="M140 16.5362L139.67 16.8373L139.199 17.4787L138.902 18.0481L138.106 18.9775L137.442 19.9691L137.507 21.4188L137.657 22.8915L138.103 24.3282L138.486 25.9252L138.376 26.9658L138.048 28.2454L137.657 29.3123L136.359 31.5016L136.161 32.0252L136.234 32.7615L137.023 35.3534L137.085 36.1683L137.556 38.6751L137.987 40.7106L138.464 42.3108L138.538 42.7494V45.0958V47.439V49.7756V52.1088V54.4357V56.7592V59.0762V61.3899V63.697V66.0009V68.2983V70.5956V72.8831V75.1673V77.4483V79.726V81.9972V84.2651V86.5296V88.7877V91.0458V93.2973V95.5422V97.7872V100.026V102.261V104.493V106.721V108.943V111.165V113.384V115.597V120.495L138.535 125.378V130.244L138.532 135.094L138.504 135.108L138.48 135.127L138.452 135.143L138.424 135.163L136.308 135.16H134.19H132.07L129.953 135.157V136.371V137.582V138.789V140L125.839 137.706L121.727 135.412L117.612 133.111L113.501 130.807L109.386 128.5L105.274 126.19L101.16 123.876L97.0479 121.559L92.933 119.236L88.8214 116.909L84.7068 114.582L80.5951 112.249L76.4803 109.909L72.3686 107.566L68.254 105.222L64.1392 102.873L61.3002 101.246L58.2348 102.833L55.8334 104.077L52.6701 105.71L49.0355 107.827L46.2455 109.451L46.114 109.438L45.9886 109.398L43.0852 106.643L40.8184 104.486L39.8119 103.881L35.538 102.778L31.2888 101.682L26.8161 100.523L26.0023 98.7592L25.0937 96.7858L23.8669 94.315L23.1174 92.7999L22.8665 92.5643L19.4371 91.3664L15.8118 90.1884L13.6918 90.9017L13.3185 90.8494L12.719 90.4011L12.1163 89.7891L11.7981 88.935L10.9476 87.7896L10.1614 85.1617L10.0849 83.0673L9.92884 82.3244L8.04135 79.366L6.32508 76.6727L5.18392 74.8728L4.96368 74.0579L5.09523 73.0565L5.5541 72.1566L7.21528 71.093L8.7143 69.9312L8.91932 69.1262L9.01417 66.9042L8.52468 66.2104L8.16365 64.8883L7.79655 63.0981L7.7537 61.9495L8.42067 59.662L9.2008 57.2632L8.70515 54.5993L8.33805 49.2356L8.56753 44.9944L8.3809 43.4497L8.24936 42.7985L7.73848 40.7891L7.11128 38.711L6.82979 37.9813L6.0252 36.3024L4.69144 34.2178L4 32.935L4.94837 32.2576L5.78965 31.7274L6.81457 31.1678L8.26765 30.5329L9.02024 30.0551L9.3415 29.6526L10.4336 28.0098L11.0027 27.1L11.7797 25.8532L12.1193 24.9827L12.1285 24.1777L12.0092 23.2024L11.4035 20.8657L10.9078 18.5881L11.2933 17.7077L11.6023 17.2889L12.2784 16.2155L12.5476 15.9995L14.0069 15.6657L14.5881 14.9523L15.0348 14.0556L15.148 13.5844L15.7843 13.0902L16.5461 12.5961L17.0141 11.9546L18.5499 10.9598L19.951 10.0533L21.5817 9.09771L22.8421 8.35806L23.1082 7.7101L23.0898 7.15053L22.4046 5.87418V4.36224L22.4505 3.10557L22.5178 2.36274L22.8207 0.291222L22.839 0L24.1484 0.690505L25.4914 0.965348L29.496 3.52783L30.7595 3.84851L33.5618 4.15282L36.8627 3.10557L38.1109 2.91582L40.283 3.90084L41.2406 4.17898L42.8497 4.25428L45.6 5.14443L46.3006 5.45533L47.9036 6.87559L48.6716 7.30103L54.3648 8.60025L55.1419 9.46093L55.9342 11.1005L55.968 13.136L56.4053 14.6087L57.112 16.5166L57.9656 17.8648L58.9109 18.9874L59.9969 19.6877L62.4934 20.7218L65.3079 21.1178L68.1468 21.2519L73.0203 22.6755L77.1534 24.3151L78.1722 25.1234L80.2433 25.9153L84.358 29.7573L86.6494 31.0827L88.2554 31.338L89.6964 31.1056L92.2571 29.777L93.3154 28.985L95.8915 25.6666L96.7388 23.9322L97.0753 22.705L96.9928 21.4581L96.6716 20.3356L95.9496 19.1576L95.4448 17.5998L95.1479 14.7886L95.5518 12.835L96.0444 11.6634L96.8214 10.4656L98.9599 8.17151L101.111 6.55161L104.901 4.43106L107.101 4.40809L108.012 4.17249L109.823 2.67034L110.558 2.61471L111.573 2.98123L114.559 2.87657L115.875 3.29543L117.444 4.23141L119.426 4.81066L120.824 5.38991L122.314 6.13275L122.651 7.98175L122.486 8.53154L122.449 9.24821L123.994 10.518L128.384 11.1136L129.25 11.454L130.458 12.4259L131.235 12.7237L134.243 12.8611L135.996 12.6549L137.666 12.9953L138.284 13.3225L138.923 14.0817L139.697 15.921L140 16.5362Z" fill="#F99B27"/>
</g>
<defs>
<filter id="filter0_d_14_25" x="0" y="0" width="144" height="148" filterUnits="userSpaceOnUse" color-interpolation-filters="sRGB">
<feFlood flood-opacity="0" result="BackgroundImageFix"/>
<feColorMatrix in="SourceAlpha" type="matrix" values="0 0 0 0 0 0 0 0 0 0 0 0 0 0 0 0 0 0 127 0" result="hardAlpha"/>
<feOffset dy="4"/>
<feGaussianBlur stdDeviation="2"/>
<feComposite in2="hardAlpha" operator="out"/>
<feColorMatrix type="matrix" values="0 0 0 0 0 0 0 0 0 0 0 0 0 0 0 0 0 0 0.25 0"/>
<feBlend mode="normal" in2="BackgroundImageFix" result="effect1_dropShadow_14_25"/>
<feBlend mode="normal" in="SourceGraphic" in2="effect1_dropShadow_14_25" result="shape"/>
</filter>
</defs>
</svg>
