<svg width="126" height="137" viewBox="0 0 126 137" fill="none" xmlns="http://www.w3.org/2000/svg">
<g filter="url(#filter0_d_14_19)">
<path d="M122 24.4427H118.623L114.113 24.446H111.038H107.881H104.923L105.181 26.8526L105.455 29.4754L105.73 32.0913L106.005 34.7037L106.28 37.3093L106.555 39.9115L106.83 42.5068L107.104 45.0953L107.379 47.6802L107.654 50.2584L107.929 52.8331L108.204 55.4078L108.479 57.9756L108.753 60.5401L109.028 63.1011L109.303 65.6551L109.578 68.2059L109.853 70.7531L110.128 73.2935L110.402 75.8305L110.677 78.364L110.952 80.8941L111.227 83.4173L111.502 85.9371L111.776 88.4534L112.051 90.9663L112.326 93.4758L112.601 95.9819L112.876 98.4845L113.151 100.984L113.425 103.479L113.7 105.972L113.975 108.461L114.243 110.871L115.39 112.134L116.833 113.72L116.411 115.965L115.909 118.639L115.36 121.554H113.322H111.354H109.389H107.424H105.459H103.49H101.525H99.5604H97.5954H95.6305H93.662H91.697H89.732H87.767H85.7986H83.8336H81.8685H80.0375L78.9107 121.485L78.5088 121.259L78.3645 119.752L78.0279 119.848L77.6294 120.291L77.4232 120.771L77.4954 121.399L77.4301 121.931L76.1658 122.141L74.4586 122.498L72.6619 122.773L70.8481 122.673L70.2296 122.549L69.5735 122.35L68.1307 122.134L67.344 122.117L66.4439 122.165L65.3824 122.285L65.0423 122.563L64.2419 123.686L63.4655 124.987L62.9605 124.98L62.3903 124.266L60.8271 122.92L58.9343 121.149L58.072 120.27L57.6151 120.157L56.7082 120.788L55.9456 121.396L55.1349 122.254L54.7673 123.078L54.4752 124.05L54.3447 125.193L54.0493 126.525L53.3931 127.599L52.6168 128.41L52.0396 128.791L51.8163 129L50.1192 128.368L49.9063 128.289L48.8825 127.575L48.3878 126.727L47.5806 126.089L46.4607 125.66L45.7324 125.172L45.3923 124.623L44.9799 124.259L44.5437 124.07L44.5025 123.875L44.6056 123.603L44.5025 123.102L43.8463 121.983L43.2348 121.468L42.7127 121.55L42.4173 121.413L42.2387 121.166L42.1665 120.805L41.8092 120.493L41.1908 120.356L40.6927 119.525L40.3182 117.997L39.8304 116.806L39.2327 115.951L38.8033 115.632L38.4872 115.574L38.3807 115.44L38.2949 115.193L37.8277 115.103L37.1715 115.361L36.5807 115.275L36.292 114.856L35.8901 114.818L35.3783 115.162L34.8114 115.062L34.1931 114.516L33.8495 113.974L33.7843 113.435L32.7159 112.36L30.6478 110.747L28.3943 109.992L25.9551 110.091L24.5879 110.016L24.2891 109.762L23.9902 109.782L23.6878 110.078L23.3684 110.143L23.0283 109.978L22.8152 110.102L22.7328 110.514L21.874 110.726L20.2422 110.73L18.923 110.984L17.9199 111.485L16.4977 111.701L14.6563 111.633L13.5467 111.447L13.1689 111.152L12.6399 111.08L11.9596 111.238L11.3482 112.038L10.8088 113.476L10.3656 114.297L10.0118 114.499L9.63398 115.57L9.42095 117.362L9.10151 118.148L9.09805 113.679L9.62361 112.007L9.79543 110.538L10.9222 107.287L12.2654 104.623L13.5055 101.08L13.9728 97.64L13.8147 94.2654L13.4471 91.2581L12.8184 89.267L12.2105 86.3799L11.3138 84.8557L9.67173 83.5237L9.30416 82.7445L9.68546 82.4526L10.6852 82.2535L11.3207 81.2133L9.97408 81.615L11.5302 78.4224L12.0146 76.2459L11.9391 74.8142L12.2345 73.9286L11.0458 72.0096L10.1218 69.5894L9.64426 69.2083L9.14953 69.0057L9.10487 69.5757L8.8369 70.0837L8.25977 69.7782L7.23949 68.0171L5.8139 65.1471L5.31225 64.8519L4.89657 65.2467L4.63553 65.6243L4.15464 68.0205L4 67.0696L4.20957 65.9505L4.5634 64.5704L4.96189 62.6513H6.19866L8.41095 62.648L10.6233 62.6445H12.8356L15.048 62.641L17.2604 62.6376L19.4692 62.6342H21.6816L23.894 62.6308L26.1063 62.6273H28.3187L30.531 62.6239L32.7434 62.6205H34.9523L37.1646 62.6171L39.377 62.6136H41.5859H43.0459L42.96 61.2472L42.8914 60.1625L42.7986 58.7034L42.7058 57.2513L42.6165 55.7958L42.5306 54.426L42.4448 53.0563L42.3657 51.7861L42.2936 50.6189L42.1665 49.946L41.6958 48.6106L41.5962 47.948L41.7233 47.2477L42.0359 46.5886L42.8982 45.3802L44.2036 44.4499L45.7083 43.3753L46.8557 42.5549L47.4431 42.3523L49.2398 42.0674L50.6551 41.4461L52.0327 40.8418L52.6098 40.5054L52.6786 39.3691V38.0989V36.6742V35.2462V33.818V32.3865V30.955V29.5234V28.0884V26.6534V25.2185V23.78V22.3383V20.8964V19.4511V18.0059V16.5572V15.1084V13.8382H54.1214H55.9181H57.7113H59.508H61.3047H63.1014H64.898H66.6947H68.4914H70.288H72.0847H73.8814H75.678H77.4747H79.268H81.0647H82.8613H84.8229V12.623V10.8756L84.8195 8.47258V6.05575L84.816 3.92734V1.79547L84.8126 0L86.6265 1.19129L88.4403 2.38247L90.2542 3.57375L92.068 4.76158L93.8819 5.94931L95.6957 7.13368L97.5061 8.31805L99.32 9.50242L101.134 10.6868L102.948 11.8677L104.762 13.0487L106.575 14.2262L108.389 15.4036L110.203 16.5812L112.017 17.7587L113.827 18.9328L115.346 19.9146L117.678 21.4972L119.853 22.9699L122 24.4427ZM10.6371 79.2497L10.0187 80.2384L9.74385 79.8607L9.63734 79.2119L10.187 78.2816L10.4482 77.801L10.9256 77.6258L10.6371 79.2497Z" fill="#F99B27"/>
</g>
<defs>
<filter id="filter0_d_14_19" x="0" y="0" width="126" height="137" filterUnits="userSpaceOnUse" color-interpolation-filters="sRGB">
<feFlood flood-opacity="0" result="BackgroundImageFix"/>
<feColorMatrix in="SourceAlpha" type="matrix" values="0 0 0 0 0 0 0 0 0 0 0 0 0 0 0 0 0 0 127 0" result="hardAlpha"/>
<feOffset dy="4"/>
<feGaussianBlur stdDeviation="2"/>
<feComposite in2="hardAlpha" operator="out"/>
<feColorMatrix type="matrix" values="0 0 0 0 0 0 0 0 0 0 0 0 0 0 0 0 0 0 0.25 0"/>
<feBlend mode="normal" in2="BackgroundImageFix" result="effect1_dropShadow_14_19"/>
<feBlend mode="normal" in="SourceGraphic" in2="effect1_dropShadow_14_19" result="shape"/>
</filter>
</defs>
</svg>
