<svg width="112" height="145" viewBox="0 0 112 145" fill="none" xmlns="http://www.w3.org/2000/svg">
<g filter="url(#filter0_d_16_4)">
<path d="M61.1552 10.2988L60.8956 10.6323L60.5138 10.6653L59.6371 10.3786L59.1232 9.71621L59.2222 8.90811L59.2504 7.41391L59.5004 6.00446L59.4296 4.5104L58.7509 4.20973L58.2747 4.29418L59.3824 2.18473L59.8209 1.86054L60.231 1.99675L61.2541 1.77121L61.7913 0.624864L62.2203 0L62.6778 0.0751328L62.8994 0.427425L62.7391 2.17053L62.7201 3.62243L62.1545 8.0577L61.5698 8.82351L61.2728 9.44364L61.1552 10.2988ZM60.9382 16.3268L60.3912 16.7168L60.0002 16.6509L60.0802 15.8758L60.3158 15.3354L60.8815 15.3777L61.0182 15.7019L60.9382 16.3268ZM18.6565 137L17.8552 135.196L17.0536 133.392L16.2476 131.587L15.446 129.779L14.8852 128.51L13.9423 128.064L13.3671 126.725L12.7825 125.353L12.1981 123.981L11.6134 122.609L11.029 121.237L10.4397 119.86L9.85507 118.484L9.27039 117.107L8.68601 115.73L8.09673 114.354L7.51206 112.977L6.92739 111.596L6.343 110.214L5.75833 108.833L5.16906 107.452L4.58467 106.071L4 104.689L5.86681 104.036L8.13903 103.242L10.4161 102.448L12.6884 101.654L14.9652 100.86L17.2374 100.066L19.5096 99.2673L21.7868 98.4732L24.059 97.6792L26.3358 96.8805L28.608 96.0818L30.8805 95.2877L33.1574 94.4891L35.4296 93.6903L37.7018 92.8916L39.9789 92.0928L42.2511 91.2942L43.6607 90.8008L44.2451 88.9403L44.7308 87.3945L45.2162 85.8486L45.7019 84.2982L46.1922 82.7478L46.6776 81.1973L47.1633 79.6469L47.6487 78.0916L48.139 76.5365L48.6247 74.9814L49.1101 73.4262L49.5958 71.8664L50.0815 70.3065L50.5718 68.7466L51.0572 67.1868L51.5429 65.6222L52.0283 64.0576L52.4763 62.6246L51.637 61.2432L50.5151 59.3827L49.3366 57.4376L48.2334 55.6053L47.4272 54.2709L46.4561 52.6593L46.5599 50.5874L46.5363 49.5491L46.6353 47.9562L47.5641 45.7434L48.6624 42.9243L49.4637 41.0497L50.1569 39.4146L50.7131 38.1038L51.0195 36.7507L50.8546 35.7969L50.4915 35.4492L50.1851 34.9981L51.2364 34.2746L53.2068 33.8047L54.2959 33.9034L55.814 33.5558L57.0207 33.2409L57.1148 32.8181L56.7756 32.1039L56.2758 31.0609L54.5741 30.9528L54.0603 30.6615L54.6541 29.1205L54.6305 28.6319L54.4044 28.0539L54.1543 27.0861L54.2769 25.8364L54.6259 24.9859L54.6305 24.3L54.4657 22.8904L54.5175 21.6359L54.8757 21.0111L55.5122 20.4285L56.1109 20.1324L56.733 20.1512L57.2282 20.4003L57.4402 21.0581L57.3082 21.5138L56.9546 21.5749L56.832 21.7676L57.3367 22.6461L58.0672 23.5059L58.6329 23.3603L59.2648 22.6836L59.934 22.1386L60.7684 21.6547L61.3767 20.7197L61.8952 20.1136L62.3573 20.029L63.7053 23.8254L65.7042 27.3727L67.4674 29.3272L69.3011 31.9772L72.0873 34.4108L73.3648 35.2424L78.5457 36.948L81.379 37.587L85.2824 38.1977L87.9836 39.5227L88.8888 39.6073L90.303 39.2126L91.3354 39.2455L93.9187 41.0497L94.6777 42.7599L95.7527 43.662L96.7002 45.0808L97.3177 46.5655L99.5004 48.8255L101.037 51.3673L102.602 53.2466L104.003 54.4165L106.124 54.877L107.812 55.4032L108 56.6577L107.826 58.2927L107.505 59.5001L105.931 61.8493L105.553 63.2965L103.771 65.6832L101.839 69.6816L100.952 70.5743L97.8361 72.6322L95.5452 75.1082L92.8299 79.4026L90.7648 83.6499L89.973 85.0077L88.3087 85.2896L87.22 85.1722L86.4655 84.7728L86.7625 83.6123L86.9417 82.3203L85.9375 82.4565L85.0559 82.7243L82.9961 85.8957L81.8644 87.2863L81.6242 89.0482L81.0772 91.3223L80.2712 93.4131L79.913 95.1703L79.9271 96.1664L80.5305 98.5954L80.5728 101.081L80.9218 102.57L81.2046 104.356L80.2381 104.905L79.4083 105.178L76.1273 105.375L72.8037 105.948L69.8999 106.982L68.1652 108.011L65.9071 110.309L64.5257 116.13L62.3147 118.582L60.8156 119.094L57.2092 119.311L52.1322 119.987L50.3499 120.574L47.3895 124.117L47.1584 125.231L47.729 126.034L47.9175 126.922L47.6487 127.754L46.3053 129.995L44.8534 131.62L40.9877 132.64L39.5686 132.034L38.2724 131.728L35.7642 131.696L31.6819 132.081L30.1779 133.284L27.8067 134.134L25.6193 135.445L21.4898 135.943L18.6565 137ZM93.2258 87.667L92.3914 87.8784L92.1508 87.7797L92.1557 86.0131L94.0979 83.7861L95.3755 81.2113L96.2571 83.5137L94.7249 84.8009L93.8951 86.9999L93.2258 87.667Z" fill="#F99B27"/>
</g>
<defs>
<filter id="filter0_d_16_4" x="0" y="0" width="112" height="145" filterUnits="userSpaceOnUse" color-interpolation-filters="sRGB">
<feFlood flood-opacity="0" result="BackgroundImageFix"/>
<feColorMatrix in="SourceAlpha" type="matrix" values="0 0 0 0 0 0 0 0 0 0 0 0 0 0 0 0 0 0 127 0" result="hardAlpha"/>
<feOffset dy="4"/>
<feGaussianBlur stdDeviation="2"/>
<feComposite in2="hardAlpha" operator="out"/>
<feColorMatrix type="matrix" values="0 0 0 0 0 0 0 0 0 0 0 0 0 0 0 0 0 0 0.25 0"/>
<feBlend mode="normal" in2="BackgroundImageFix" result="effect1_dropShadow_16_4"/>
<feBlend mode="normal" in="SourceGraphic" in2="effect1_dropShadow_16_4" result="shape"/>
</filter>
</defs>
</svg>
