<svg width="49" height="117" viewBox="0 0 49 117" fill="none" xmlns="http://www.w3.org/2000/svg">
<g filter="url(#filter0_d_23_2)">
<path d="M43.0449 1.72559L42.708 2.85352V4.32617L43.2217 5.13379L43.9199 6.73242L44.3486 8.33203L43.4404 9.65234L43.5244 11.0332L43.7686 12.1943L44.5088 13.5498L43.1797 15.9902L41.8662 18.2285L41.5293 19.5576L40.2852 19.7266L37.373 21.0312L36.9775 21.4268L36.4639 22.1836L36.3721 22.7646L35.959 29.0254L34.377 28.8486L32.4502 27.4854L32.0723 26.3076L31.4912 25.9033L31.4824 25.9023V25.9287L32.0635 26.333L32.4424 27.5107L34.3691 28.874L35.9512 29.0508L36.4385 33.4355L35.5557 37.1807L35.4883 40.4297L36.1357 46.5049L34.7305 49.0801L33.9316 52.1191L33.5781 54.4072L33.5762 54.4062L32.9219 58.6406L32.9385 58.6572L32.4004 61.249L32.6104 61.6875L33.3174 63.9424L31.9795 68.0576L30.498 71.4072L29.9766 72.9893L28.5293 76.5156L27.0479 80.5967L26.2568 83.4082L26.4336 84.4014L26.0723 89.543L26.2822 90.999L24.5488 95.4512L24.2041 97.6475L23.5059 100.618L22.3105 106.896L20.6777 109L19.8701 106.66L18.002 99.9443L16.6807 95.333L14.8721 89.6523L11.8262 82.7178L11.5479 81.043L10.8916 78.6191L8.79688 72.291L7.0791 67.7129L5.11914 61.8555L4.34473 59.5498L4 58.7168L8.46875 54.2812L10.5977 51.4873L10.7568 51.2852L13.9893 45.3701L13.4941 43.7285L14.083 45.1982L15.3428 42.8945L18.3057 34.5635L21.0908 22.9248L23.0762 16.9912L24.7588 13.0527L25.5 9.78809L28.21 9.56055L30.2285 9.90527L32.6523 10.0146L34.5879 8.78613L35.5137 5.1084L36.6152 4.51074L37.1797 5.38574L37.752 4.41797L40.2852 2.79395L41.5381 1.75098L42.792 0.462891L43.4658 0L43.0449 1.72559ZM21.2637 52.8271L21.2676 52.8252L21.2646 52.8242L21.2637 52.8271ZM23.1855 30.6162L23.1836 30.624L24.4648 27.2422L24.4658 27.2324L23.1855 30.6162Z" fill="#F99B27"/>
</g>
<defs>
<filter id="filter0_d_23_2" x="0" y="0" width="48.5088" height="117" filterUnits="userSpaceOnUse" color-interpolation-filters="sRGB">
<feFlood flood-opacity="0" result="BackgroundImageFix"/>
<feColorMatrix in="SourceAlpha" type="matrix" values="0 0 0 0 0 0 0 0 0 0 0 0 0 0 0 0 0 0 127 0" result="hardAlpha"/>
<feOffset dy="4"/>
<feGaussianBlur stdDeviation="2"/>
<feComposite in2="hardAlpha" operator="out"/>
<feColorMatrix type="matrix" values="0 0 0 0 0 0 0 0 0 0 0 0 0 0 0 0 0 0 0.25 0"/>
<feBlend mode="normal" in2="BackgroundImageFix" result="effect1_dropShadow_23_2"/>
<feBlend mode="normal" in="SourceGraphic" in2="effect1_dropShadow_23_2" result="shape"/>
</filter>
</defs>
</svg>
