<svg width="186" height="158" viewBox="0 0 186 158" fill="none" xmlns="http://www.w3.org/2000/svg">
<g filter="url(#filter0_d_19_6)">
<path d="M103.156 30.4292L104.828 30.6428L107.058 30.9276L108.412 31.1228L110.96 31.4851L111.722 32.9837L111.999 34.0335L112.256 35.0553L113.021 35.9873L114.757 35.9657L116.296 35.9471L118.193 35.9162L119.699 35.8944L120.183 36.8203L120.396 37.7431L121.29 39.9261L122.567 41.6261L122.873 42.2453L123.076 43.1774L122.854 43.5242L122.768 43.9237L123.715 44.8526L125.275 45.6391L125.886 45.8372L126.58 46.184L126.04 46.7197L126.963 47.9583L128.033 49.2186L129.18 49.5035L130.729 51.4047L133.064 52.6341L134.48 54.2442L134.347 54.2752L133.931 54.111L133.409 53.8912L133.252 54.0894L133.28 54.7644L133.419 55.5571L134.14 56.2415L134.782 56.7338L135.032 57.6658L134.526 59.6693H134.35L134.011 59.4959L133.65 59.4556L133.456 59.5702L133.884 61.01L134.313 62.1124L134.825 62.9856L135.254 64.2614L135.621 64.8063L137.123 66.1595L137.586 67.2897L138.014 69.3922L138.958 70.5627L139.467 71.4638L140.149 72.2286L140.593 73.2722L141.222 74.0742L141.549 74.2754L142.04 74.359L142.651 74.3621L143.382 74.1547L144.162 73.9595L144.77 74.3652L145.399 74.3032L145.464 74.681L145.041 75.1951L144.523 76.4894L145.26 76.6937L145.966 76.796L146.466 77.0034H146.759V77.2728L146.793 78.499L146.969 78.9666L147.29 79.3815L147.765 80.0008L148.24 80.6201L148.715 81.2394L149.19 81.8587L149.665 82.478L150.143 83.0973L150.618 83.7135L151.093 84.3328L151.568 84.949L152.043 85.5652L152.518 86.1814L152.993 86.7976L153.468 87.4138L153.943 88.03L154.421 88.6462L154.896 89.2593L155.288 89.7671L156.016 89.8632L156.247 89.8941L156.904 89.9808L157.922 90.1139L159.242 90.2905L160.806 90.4979L162.549 90.727L164.415 90.9747L166.34 91.2286L168.268 91.4826L170.131 91.7303L171.873 91.9625L173.437 92.1669L174.761 92.3434L175.778 92.4766L176.435 92.5632L176.667 92.5942L177.355 92.684L177.484 92.6624L178.061 91.9099L178.697 92.972L179.224 93.8514L179.946 95.059L180.717 96.3409L181.451 97.5671L182 98.4775L181.707 99.4219L181.389 100.453L181.071 101.484L180.754 102.512L180.433 103.54L180.115 104.568L179.798 105.596L179.48 106.621L179.162 107.646L178.841 108.671L178.524 109.696L178.206 110.718L177.888 111.74L177.567 112.762L177.25 113.783L176.932 114.802L176.614 115.821L176.232 117.047L175.31 117.372L173.823 117.899L172.333 118.425L170.846 118.952L169.36 119.478L167.87 120.004L166.383 120.528L164.896 121.054L163.406 121.58L161.92 122.104L160.43 122.627L158.943 123.153L157.456 123.677L155.967 124.2L154.48 124.723L152.99 125.247L151.503 125.77L150.282 126.2L148.249 126.488L146.275 126.767L144.054 127.083L141.386 127.464L139.291 127.761L136.238 128.195L133.496 128.582L130.926 128.947L128.357 129.312L126.17 129.622L124.865 129.981L123.332 130.771L120.979 131.982L118.579 133.211L117.336 133.849L116.034 135.484L115.374 136.31L114.183 137.806L113.283 138.933L112.206 140.28L111.737 141.475L111.013 143.321L110.386 143.785L109.362 144.386L108.431 144.813L106.978 144.751L106.148 143.618L105.269 142.414L104.828 141.931L104.433 141.906L102.974 142.058L101.216 142.243L99.1432 142.048L96.7526 141.819L94.5102 141.605L93.3936 141.444L91.9223 140.664L91.543 140.509L91.1574 140.472L89.4114 140.454L87.6811 140.435L85.9475 140.683L84.2882 140.593L82.5669 140.735L81.9623 141.033L81.2899 141.017L80.8704 141.28L80.5003 141.404L80.0624 141.178L79.5256 141.228L78.7358 141.033L78.2208 140.522L77.7335 140.073L77.2307 139.825L76.6693 139.67L76.1818 139.667L75.5589 139.94L75.1795 140.203L74.2171 141.085L74.177 141.401L74.6149 141.927L74.4824 142.175L73.9148 142.485L73.7389 143.318L73.6557 143.773L73.5725 144.863L73.8253 145.721L74.1616 146.037L74.177 146.405L73.9919 147.142L73.4706 147.368L73.0881 148.068L72.8537 148.393L72.4465 148.765L70.8272 150L70.747 149.282L70.2319 148.216L70.1948 147.464L69.9542 146.708L69.5101 146.126L68.6896 145.519L68.6155 144.696L68.0172 143.881L67.2244 143.225L66.7833 142.011L66.4502 140.398L64.359 138.274L61.7432 136.31L60.9474 135.205L59.6458 132.948L58.9887 131.161L57.2397 129.102L57.1658 128.309L56.9067 127.343L56.5027 126.265L56.2589 125.417L54.5039 121.683L53.9363 121.088L53.4488 120.252L53.3225 119.605L53.1681 119.252L51.9282 118.639L50.7715 117.066L47.2952 114.558L45.5925 114.307L44.2447 113.409L43.2515 112.235L42.1934 110.21L40.3303 108.018L38.7512 104.903L39.2476 103.766L39.2169 102.967L38.7295 101.621L38.202 100.58L37.8381 99.5953L38.125 98.1803L38.2359 96.5949L38.5475 95.7526L38.7726 94.8268L38.4797 92.9627L37.9554 91.9625L38.0077 91.2968L37.4124 90.9717L36.9312 90.2471H37.4341L36.521 89.2407L36.1847 88.6802L35.8393 87.3116L35.3982 86.265L33.9824 83.8869L33.3037 82.4346L31.7863 80.5551L30.139 79.1647L29.0934 78.5331L28.5875 77.9572L27.7331 77.9385L26.8016 77.1149L26.1508 77.0839L25.3271 76.9508L24.3587 75.3623L23.5597 73.8729L22.1965 71.9313L22.5387 71.4235L22.9367 70.5968L22.7392 69.513L22.5233 68.7761L21.922 67.4321L19.9446 64.0817L19.4203 63.5894L18.5782 63.0228L18.0601 61.5674L17.8225 60.2607L16.4685 59.6259L14.1396 54.9007L12.7885 53.244L12.2549 52.1293L10.6942 50.2931L9.92609 48.4631L8.35295 46.7724L6.98972 43.8338L4.88284 40.8891L3.99762 40.3781L1.82617 40.1676L0.913086 39.9508L0.0741764 40.598L0 39.7774L0.580045 38.641L1.41594 36.2506L1.58237 34.1511L2.89646 27.89L4.74108 28.2121L6.25868 28.4784L8.47645 28.8685L10.7712 29.271L12.113 29.5064L12.5727 29.4042L14.4296 27.8684L16.1014 26.4811L17.1039 24.7812L18.0723 23.1308L18.5166 22.7901L20.0034 22.4804L22.3629 21.9881L24.6979 21.502L24.8862 21.3347L25.429 20.0064L26.1199 18.3188L26.2618 18.1423L26.4315 17.9689L28.1033 17.0213L29.118 16.4454L27.6714 14.7455L26.3082 13.1383L24.7781 11.3362L23.4827 9.93044L21.5424 7.82475L20.2716 6.44377L22.4956 5.7873L24.9014 5.07819L27.3291 4.36294L30.2501 3.50207L32.5358 2.82708L35.9473 1.81756L37.6159 1.32523L37.9183 1.1952L39.2015 0L41.1323 0.334331L44.0348 0.839136L46.8387 1.32211L49.7937 1.89505L50.7406 2.3595L53.5938 4.06877L55.4476 5.17732L57.6131 6.46853L60.3182 8.08179L62.1751 9.18722L64.5533 10.6023L66.4071 12.2156L68.7544 14.2561L71.3331 16.4919L73.4552 18.2259L76.3793 20.6101L79.2604 22.9542L82.0826 25.2425L84.3405 27.0725L87.1999 29.3825L87.422 29.4693L90.3123 29.7293L94.1956 30.0824L98.0976 30.4353L101.62 30.7542L103.156 30.4292ZM17.1408 63.382L17.0606 63.512L16.6967 63.1745L16.7183 62.4345L17.0329 62.0133L17.0082 62.5892L17.144 63.1714L17.1408 63.382ZM19.7936 66.5404H19.5653L18.9575 65.8933L18.6028 65.4163L18.2389 65.0943L16.5794 64.4472L16.3542 64.0291L16.6072 63.6111L16.7861 64.026L17.0884 64.2706L18.4611 64.8559L19.9909 66.1317L20.2532 66.2369L19.7936 66.5404ZM63.8222 146.879L64.4915 146.931L64.214 146.643L64.1553 146.504L64.4452 146.089L65.4014 146.944L65.3737 147.956L65.2935 148.189L65.0345 147.972L64.8649 147.758L64.8123 147.529L64.5471 147.281L63.6155 147.442L63.0357 147.167L62.206 146.315L61.9838 145.699L62.3293 145.578L62.6964 145.281L62.9276 144.795L62.7149 144.29L63.2083 144.371L63.4736 144.888L63.5261 146.061L63.6001 146.309L63.4643 146.578L63.8222 146.879Z" fill="#F99B27"/>
</g>
<defs>
<filter id="filter0_d_19_6" x="-4" y="0" width="190" height="158" filterUnits="userSpaceOnUse" color-interpolation-filters="sRGB">
<feFlood flood-opacity="0" result="BackgroundImageFix"/>
<feColorMatrix in="SourceAlpha" type="matrix" values="0 0 0 0 0 0 0 0 0 0 0 0 0 0 0 0 0 0 127 0" result="hardAlpha"/>
<feOffset dy="4"/>
<feGaussianBlur stdDeviation="2"/>
<feComposite in2="hardAlpha" operator="out"/>
<feColorMatrix type="matrix" values="0 0 0 0 0 0 0 0 0 0 0 0 0 0 0 0 0 0 0.25 0"/>
<feBlend mode="normal" in2="BackgroundImageFix" result="effect1_dropShadow_19_6"/>
<feBlend mode="normal" in="SourceGraphic" in2="effect1_dropShadow_19_6" result="shape"/>
</filter>
</defs>
</svg>
