<svg width="117" height="96" viewBox="0 0 117 96" fill="none" xmlns="http://www.w3.org/2000/svg">
<path d="M66.9834 0.0481836H68.2874H70.5751H72.8626H75.1502L77.4379 0.0456835H79.7229H82.0106H84.2981H86.5857H88.8734H91.1584L93.4485 0.0431835H95.7336H98.0212H100.309H102.596L104.884 0.0406834L104.961 1.7437L105.269 3.10163L106.347 5.04049L107.256 6.08318L107.584 6.65662L107.614 6.92223L107.571 7.1705L107.296 6.88503L106.829 6.69139L106.764 7.59748L106.871 8.24046L106.983 9.44945L107.365 10.7453L107.09 11.9419L107.127 13.9676L107.609 16.3905L107.512 17.9347L108.299 21.5294L109.064 23.5204L109.484 24.0094L109.958 24.2726L110.867 24.4414L112.206 25.4518L113.267 26.5193L113.644 27.0778L114.156 27.6885L114.509 27.5793L114.725 27.4154L115.07 27.9095L116.752 28.9744L117 29.4685L116.394 29.9526L115.696 30.7867L115.52 31.1194L115.438 31.3155L115.356 31.5637L115.172 31.8095L114.772 32.1471L114.613 32.2936L114.519 32.5269L114.278 32.6784L114.014 32.6859L113.786 32.7901L113.441 32.949L112.927 32.8671L112.402 33.0135L112.211 33.1972L111.794 33.3586L111.379 33.3933L111.233 33.4479L110.84 33.7185L110.358 34.0984L109.794 34.3392L109.596 34.4187L109.337 34.6793L108.938 35.9801L108.644 36.3202L108.153 36.355H107.514L106.96 36.4667L106.208 36.3227L105.843 36.3401L105.746 36.6181L105.612 37.7328L105.629 38.2119L105.331 38.7754L104.998 39.4829L105.12 40.6746L105.177 41.8538L104.566 43.6263L104.479 44.0334L103.861 45.436L103.543 45.9598L102.753 48.5765L102.445 49.3807L101.784 50.2273L101.933 51.6051L102.092 53.0623L102.241 54.4377L102.465 56.4907L101.903 58.4072L101.926 59.4523L101.533 60.9915L101.223 61.704L100.947 62.1236L100.716 62.5605L100.289 63.5187L99.9262 64.7823L99.7648 66.0757L99.7525 66.8279L99.6803 67.1705L99.5587 67.3889L98.7216 67.5304L97.5567 67.6844L96.9307 67.8532L96.511 68.1163L95.9945 68.7295L94.971 70.4077L94.4371 71.4354L93.5975 72.8406L92.6214 73.8336L92.4152 74.3177L92.2537 75.2163L91.8937 76.6388L91.5633 77.6467L91.6229 78.461L91.3149 79.8686L91.3596 80.5537L91.0168 80.936L90.5573 81.2985L90.2444 81.3904L89.5737 80.9758L89.0621 80.5562L88.8535 80.4445L88.4089 80.7077L87.8748 81.0974L87.2638 82.006L86.7893 82.9246L87.0626 84.8733L87.0378 85.2978L86.8986 85.762L86.1585 87.2119L85.9748 87.6711L85.7064 88.54L85.4208 90.0568L85.4108 90.4218H85.4034L84.1069 90.4168L84.0845 90.4093L84.0646 90.387L84.0447 90.3547L84.0225 90.3076L83.9727 90.1089L83.9454 89.7986L83.9902 89.2624L84.1342 88.6244L84.5837 87.7282L84.6061 87.6538L84.6111 87.6116V87.5644L84.5688 87.403L84.5167 87.264L84.4918 87.0555L84.5688 86.5887L84.5763 86.4448L84.5664 86.2611L84.5315 86.1419L84.2186 85.3649L84.1143 85.2407L81.0964 82.7656L80.5451 82.0929L80.4855 82.0483L80.4109 82.0135L78.8784 81.4475L78.8039 81.3904L78.8138 81.3085L78.8611 81.2017L79.0448 80.874L79.0697 80.7896L79.097 80.658L78.4064 75.4248L78.409 75.3231L78.4387 75.2535L78.4636 75.2113L78.5556 75.0997L78.6351 74.9855L78.7269 74.7819L78.7492 74.7074L78.8461 73.769L78.8387 72.9498L79.241 71.582L79.2857 70.9985L75.9575 70.9563L75.9376 70.9861L75.9351 71.0234L75.9426 71.0631L75.9475 71.1078L75.9451 71.1996L75.9202 71.3685L75.9128 71.4603L75.9152 71.5497L75.9673 71.8798L76.0544 72.1256L76.0668 72.2075L76.0718 72.2969L76.0618 72.4682L71.4295 72.488L73.2625 74.5436L73.2849 74.5858L73.3172 74.6974L73.3297 74.7819L73.3644 75.5043L73.2675 76.6462L73.2874 77.3811L73.3942 77.8577L73.8909 78.7961L73.8586 78.9724L73.7444 79.1933L70.4584 81.9787L70.3663 82.1103L69.9094 83.2721L69.4748 83.9448L69.2835 84.1385L68.5209 85.0844L65.523 88.051L65.0312 88.2496L63.5384 88.3314L62.7486 88.3538L62.6591 88.3761L62.525 88.4258L62.443 88.5027L62.3462 88.5599L62.2494 88.5301L62.1375 88.4481L60.2945 86.7874L57.006 84.6896L56.6905 84.8808L54.8302 85.7844L54.4476 86.0178L54.234 86.1841L54.2241 87.1945L53.8988 87.7059L53.3126 88.2669L51.703 88.6219L50.866 88.9248L50.009 89.3791L49.87 89.4933V89.4908L49.5421 89.8061L48.8939 90.4391L48.8243 90.9306L48.9286 91.3725L43.3823 91.3552L43.0171 91.0027L42.2471 89.4535L42.2124 89.4387L41.646 89.5355L36.589 89.3543L35.8663 89.5157L34.4206 90.1561L33.6929 90.2629L32.9428 89.9699L30.2825 86.8817L29.7089 86.5118L29.4977 86.3132L29.1052 85.772L28.5366 85.4493L28.3453 85.2159L28.2831 84.8857L28.3005 84.2055L28.1142 83.781L27.6944 83.6842L24.1177 84.4017L23.6061 84.3197L22.856 84.4488L22.5976 84.5754L22.2947 84.9825L22.2326 85.4046L22.2424 85.8316L22.1506 86.2511L21.8774 86.7203L20.8591 87.7679L20.6331 88.2247L20.6802 89.3766L20.6132 89.96L20.4592 90.2306L20.017 90.6725L19.8555 90.9282L19.7811 91.2882L19.7562 92.0478L19.6768 92.4028L19.1204 93.2965L18.9887 93.6118L18.9564 94.2548L18.8671 94.4508L17.2501 94.9598L16.6464 95.285L16.2764 95.7865L16.1869 96L15.494 95.8212L14.6147 95.6921L12.9233 95.5332L12.255 95.2999L11.9347 94.9499L12.0366 94.0561L11.8675 93.865L11.5994 93.7061L11.4131 93.3188L11.4528 92.8547L12.3445 91.8219L12.5284 91.2708L12.67 89.3518L12.7618 88.6765L12.6947 87.8846L11.9869 86.4274L11.3709 85.4145L10.3649 83.9126L9.9724 83.421L7.94065 81.3507L7.70476 81.0428L7.21297 80.1664L7.45644 79.3944L7.75449 78.2475L7.78921 77.7162L7.65004 77.1676L7.13596 76.7555L6.67889 76.7059L6.47529 76.4973L6.07779 76.1945L5.68545 75.9586L5.33768 75.5068L5.09679 74.8737L5.2681 72.6072L5.15137 72.3043L4.63229 72.2199L4.51055 72.0561L4.53041 71.6216L4.25223 70.3283L3.93932 69.2558L4.10563 68.6649L3.67357 67.8557L2.84386 67.5081L2.06146 67.6148L1.22205 67.7762L0.715249 67.7315L0.370056 67.5801L0.12416 67.2847L0 66.9322L0.114155 66.4058L0.576231 65.4377L1.15004 64.6433L2.31978 63.9159L2.63026 63.5311L2.80915 63.1016L2.83901 62.6101L2.75942 62.0913L2.62783 61.6171L2.28264 60.9891L1.96716 60.2492L1.95973 59.7527L2.11118 59.3953L2.42423 58.9633L3.04519 58.4767L3.19421 58.3799L3.58413 58.1192L3.92432 57.9281L4.77388 57.4166L4.97263 57.1709L4.90047 56.8755L4.69187 56.6346L4.3491 56.2971L4.27952 55.8825L4.18022 55.175L4.00391 54.7231L3.87717 54.393L4.11806 54.1447L4.47826 53.7996L4.92791 53.5886L5.62087 53.4099L5.89405 53.1616L5.97349 52.6899L5.95121 52.2381L6.20211 51.903L6.53729 51.1831L6.80805 50.8554L7.2627 50.4805L7.7172 50.0113L7.91837 49.4652L7.97552 48.9413L7.72705 47.3475L8.25113 46.6823L8.92181 46.1311L9.88553 46.1684L11.3808 46.0467L12.3992 45.8183L13.1245 45.8258L14.7811 46.1237L14.9177 46.0517L14.955 45.9921L15.0445 45.5701L15.0419 44.5076L15.0395 41.2902L15.0369 38.068L15.0345 34.8381L15.032 31.5985L15.0295 28.3514L15.027 25.0968L15.0246 21.8323L15.022 18.5603V17.6418V16.7257V15.8072V14.8862L16.7409 14.8887H18.4621H20.181L21.8997 14.8912L21.9221 14.8762L21.9444 14.8638L21.9643 14.849L21.9867 14.839L21.9891 11.1599V7.46839L21.9917 3.76446V0.0481836H24.6542L27.3194 0.050608H29.9821H32.6448H35.3073H37.97H40.6352L43.2979 0.0531081H45.9604H48.6231H51.2858H53.9484L56.6111 0.0556082H59.2738H61.9389H64.6014H65.4137L65.454 0H66.4544L66.9834 0.0481836Z" fill="#F99B27"/>
</svg>
