<svg width="120" height="155" viewBox="0 0 120 155" fill="none" xmlns="http://www.w3.org/2000/svg">
<g filter="url(#filter0_d_28_2)">
<path d="M10.1051 147L10.1549 146.123L9.98647 145.686L8.96832 144.373L7.06589 141.929L5.62675 140.079L4.15303 138.191L4.14555 136.679L4.13013 132.179L4.09182 123.182L4.06121 114.182L4.0229 105.182L4.00374 100.678L4 98.8361L4.15303 98.5374L5.83351 96.8867L8.05367 94.6961L10.9703 90.5408L12.555 88.2773L13.8794 86.3969L14.2123 85.8224L15.3837 84.6811L17.577 83.9994L18.9398 83.8845L23.6287 83.0305L24.3253 82.6858L24.7349 82.2914L25.1253 81.3913L26.0364 80.1275L27.2153 79.2543L29.4546 78.1206L31.6479 77.1594L32.1339 77.0023L34.775 76.3973L35.4219 76.1904L36.4899 75.9798L36.9111 75.9721L40.5779 76.1828L43.4487 76.3512L46.3999 76.5197L46.7138 76.3895L48.777 74.1453L52.0611 70.5644L54.1589 68.2818L57.3972 64.7507L59.8851 62.2001L62.6372 59.3813L65.3129 56.8L68.5244 53.694L70.5532 51.7371L73.6994 48.6962L76.6966 45.7969L79.3455 43.2349H75.6899H72.1187H68.601L67.9732 42.9245L65.0181 41.9289L61.2747 40.6688L56.6278 39.1063L53.3166 37.9956L49.7874 36.8275L46.2085 35.6479L43.3989 34.7211L39.8966 33.5645L36.8536 32.5572L36.4363 32.3121L34.7484 30.7764L32.532 28.7581L32.1072 28.7237L31.0508 28.3023L30.1013 27.2108L29.1215 25.8168L28.2143 24.0704L27.8202 22.8831L26.6067 22.3815L26.0247 21.4432L24.9262 20.0529L24.1646 19.3789L23.8929 18.789L23.5406 17.5711L22.9128 16.2423L22.3119 15.4226L22.1741 15.0665L22.2087 14.8367L23.3224 13.0367L23.824 12.3933L24.3943 11.7728L24.8573 11.1524L25.0372 10.7273L26.3885 8.60553L27.5788 6.73667L28.5091 5.27746L30.6066 6.94728L32.6469 10.3328L35.0238 13.0673L38.3082 15.6026L39.6095 16.4605L40.7617 16.9124L46.7367 16.8435L50.978 14.5302L54.8287 12.8528L56.1225 12.5043L58.3578 12.9639L60.8228 13.1018L63.0393 13.6111L64.1646 13.4809L68.5512 11.5315L71.3071 9.63194L73.1866 8.82385L73.9254 8.81626L76.4899 9.50174L79.7857 9.203L84.2947 7.5638L85.7301 7.2307L86.8249 7.20768L89.2784 7.94681L89.6611 7.90859L90.9895 7.77067L94.4918 6.98935L97.221 5.80983L102.247 4.9557L106.071 2.79569L106.741 1.75023L107.897 0.432678L109.573 0L113.86 1.54722L114.545 1.6697L114.297 2.60425L114.147 3.55785L113.271 5.21995L112.708 7.06602L113.121 9.88474L113.321 14.4498L113.217 15.1124L112.934 15.7635L112.815 16.2805L112.352 16.4605L112.149 16.7555L112.486 16.8704L113.826 16.3763L113.803 15.8286L113.879 15.5605L114.982 16.1694L115.77 16.4223L116 16.9967L115.939 17.3873L114.687 17.2073L114.048 16.9048L112.191 17.4026L111.055 17.9388L110.714 18.8351L110.45 22.4044L110.01 24.7176L109.925 27.7777L108.421 29.7997L107.916 31.2245L105.68 34.0815L104.517 36.5174L104.134 37.7083L102.17 41.048L99.4718 43.6063L98.4994 46.8731L97.5348 48.9221L96.444 50.7757L94.0631 54.0771L92.8459 56.3673L91.3187 60.3426L90.8477 62.855L86.5492 70.1469L82.0899 75.953L79.3147 80.836L74.3312 86.4965L67.5368 93.7999L58.6412 102.463L56.2297 104.229L46.4956 109.571L40.1837 114.044L36.9608 117.089L33.577 119.739L30.89 122.263L22.7713 130.773L21.9367 131.573L21.1482 132.328L20.1264 133.772L19.4143 134.342L17.4775 136.778L16.264 138.038L14.909 139.287L14.331 140.168L13.9254 141.182L13.4698 141.745L12.2487 144.166L11.1693 145.751L10.1051 147Z" fill="#F99B27"/>
</g>
<defs>
<filter id="filter0_d_28_2" x="0" y="0" width="120" height="155" filterUnits="userSpaceOnUse" color-interpolation-filters="sRGB">
<feFlood flood-opacity="0" result="BackgroundImageFix"/>
<feColorMatrix in="SourceAlpha" type="matrix" values="0 0 0 0 0 0 0 0 0 0 0 0 0 0 0 0 0 0 127 0" result="hardAlpha"/>
<feOffset dy="4"/>
<feGaussianBlur stdDeviation="2"/>
<feComposite in2="hardAlpha" operator="out"/>
<feColorMatrix type="matrix" values="0 0 0 0 0 0 0 0 0 0 0 0 0 0 0 0 0 0 0.25 0"/>
<feBlend mode="normal" in2="BackgroundImageFix" result="effect1_dropShadow_28_2"/>
<feBlend mode="normal" in="SourceGraphic" in2="effect1_dropShadow_28_2" result="shape"/>
</filter>
</defs>
</svg>
