<svg width="124" height="114" viewBox="0 0 124 114" fill="none" xmlns="http://www.w3.org/2000/svg">
<g filter="url(#filter0_d_25_10)">
<path d="M120 4.13864V4.43246L119.843 5.18895L117.857 7.36473L115.161 10.3155L113.225 12.1786L109.966 15.3045L107.528 15.9734L103.429 17.0987L102.325 18.1866L101.298 19.9497L100.696 22.3565L100.52 23.8571L100.414 26.6579L101.373 29.565L102.294 32.3471L102.413 34.185L102.319 35.9918L101.429 37.9238L100.458 40.5681L99.8997 43.5504L99.6052 49.1207L99.5991 53.8533L99.5176 54.6224L97.8317 57.9483L95.8635 61.837L94.9485 62.731L90.63 63.8876L85.9171 66.726L80.646 69.8956L75.8639 72.7653L70.8434 75.7724L65.6351 78.8859L61.9122 81.1052L56.9296 84.0748L52.3919 86.9069L47.7976 89.7764L44.3004 91.9459L38.998 95.3781L35.8894 97.3913L31.3204 100.342L27.2964 102.937L22.5395 106L16.5726 105.094L14.6863 104.562L13.1443 103.106L12.01 102.324L9.18956 101.524L7.37822 98.7667L6.29372 97.7914L4.4009 97.3537L4.65185 96.366L5.62963 94.7031L6.61964 92.89L6.0684 91.8834L5.88631 91.0206L5.82396 89.9953L6.50067 89.0139L6.18087 87.826L5.661 86.6381L5.27845 86.0379V84.9439L5.5294 84.1061L5.8427 82.8244L6.64489 82.1242L6.85185 81.3927L7.57256 80.6738L8.53121 80.0862L8.75078 79.6172L8.61269 79.3484L7.64753 78.817L7.12728 77.8856L7.5913 76.5289L7.89848 76.1038L8.47497 75.441L9.76605 74.4406L10.7752 74.2781L11.6462 74.272L13.1255 74.3594L14.2724 74.5408L14.5669 74.2781L14.5233 73.9469L13.1068 73.1278L13.0314 72.4715L13.3826 71.7713L14.3852 70.6584L15.5822 69.8456L16.1905 69.7018L17.5565 68.0638L18.4341 66.232L17.0114 61.7683L16.1591 61.0492L14.7678 60.4366L13.9465 60.3429L13.8837 60.0491L14.9809 58.9175L15.7578 57.9233L14.8994 56.9855L13.3512 56.5418L12.7809 57.5169L10.8001 57.6045L7.72902 57.5921L6.3752 52.8532L6.16863 50.7963L6.20612 48.4142L7.1399 44.9258L6.70113 43.3066L6.66364 42.2124L6.42531 40.712L4 37.4735L5.32245 31.4968L6.25623 30.0464L7.57256 30.1839L10.3804 31.8845L10.8441 31.8345L11.6964 29.5963L12.5238 28.8398L14.2536 28.1707L14.7487 24.5447L15.5573 23.8508L16.5351 23.4757L18.0393 23.4007L19.343 23.188L19.4245 22.5504L17.5944 18.3429L17.7573 17.2739L18.641 13.0351L19.1988 11.3721L19.7316 10.8282L21.8062 11.0407L24.7081 11.7909L25.4789 13.0101L26.9016 14.0979L29.0263 14.023L31.4894 14.2292L33.4075 14.2979L34.943 13.5353L38.4089 12.1099L40.12 11.6346L41.6803 11.0033L46.6947 8.66498L48.7065 8.84642L50.079 9.15264L51.1318 9.52773L53.4886 11.122L55.4377 12.7349L56.8102 13.2163L59.2673 13.1789L62.8211 13.4914L67.1832 13.4664L69.734 13.0164L72.9872 12.2223L78.7907 10.3155L86.4247 6.32053L90.9123 4.37618L92.8487 4.14494L95.3685 4.12624L97.8879 4.6326L100.746 4.9953L102.068 4.96401L105.159 4.56392L109.169 3.75115L111.689 3.08834L114.735 2.00064L116.634 0.187548L117.248 0L118.038 0.331404L118.408 0.456373L119.185 1.48168L120 4.13864Z" fill="#F99B27"/>
</g>
<defs>
<filter id="filter0_d_25_10" x="0" y="0" width="124" height="114" filterUnits="userSpaceOnUse" color-interpolation-filters="sRGB">
<feFlood flood-opacity="0" result="BackgroundImageFix"/>
<feColorMatrix in="SourceAlpha" type="matrix" values="0 0 0 0 0 0 0 0 0 0 0 0 0 0 0 0 0 0 127 0" result="hardAlpha"/>
<feOffset dy="4"/>
<feGaussianBlur stdDeviation="2"/>
<feComposite in2="hardAlpha" operator="out"/>
<feColorMatrix type="matrix" values="0 0 0 0 0 0 0 0 0 0 0 0 0 0 0 0 0 0 0.25 0"/>
<feBlend mode="normal" in2="BackgroundImageFix" result="effect1_dropShadow_25_10"/>
<feBlend mode="normal" in="SourceGraphic" in2="effect1_dropShadow_25_10" result="shape"/>
</filter>
</defs>
</svg>
