<svg width="178" height="106" viewBox="0 0 178 106" fill="none" xmlns="http://www.w3.org/2000/svg">
<g filter="url(#filter0_d_16_2)">
<path d="M153.739 34.8308L146.574 37.4538L144.685 38.6186L142.968 40.0568L141.682 41.8546L140.781 45.0095L141.465 47.8909L141.399 49.4356L139.55 50.4585L137.824 51.1927L135.904 52.317L134.74 52.5955L133.788 53.4868L132.679 54.1096L128.683 55.7301L124.318 56.981L117.381 58.4799L114.702 60.1055L112.266 61.2197L108.564 61.5538L103.48 63.0984L100.654 64.334L97.1452 66.3445L96.3704 66.9775L95.7528 68.4561L94.6742 69.7324L92.5626 71.8238L90.9776 72.8974L89.919 72.953L87.8631 73.5405L85.4275 73.6621L81.3357 72.9277L80.2827 73.4392L79.4166 74.2544L76.2619 75.6877L73.0565 78.5489L70.7118 79.3085L66.9189 80.2048L64.2654 81.3948L62.483 81.8709L60.189 82.119L55.9405 81.9975L51.9145 82.4279L48.1824 83.2331L46.4302 84.7573L44.4302 87.173L41.1639 88.1706L40.3943 89.0365L39.3864 90.8141L37.2748 91.2749L35.3607 91.5736L33.4061 90.7989L29.7194 92.946L28.327 93.3005L26.2102 93.3866L24.7062 93.8372L23.6275 93.7107L22.2858 92.8701L19.4297 91.8521L17.3434 92.5156L17.166 90.4849L13.7075 84.2763L14.4267 78.8628V78.0981L13.7377 75.6775L11.6768 73.4646L11.7377 70.659L11.0488 68.6536L10.502 66.5876L10.6791 66.0406L10.7097 65.5444L9.65639 62.3589L9.30683 61.7159L9.17516 61.0475L9.51978 60.536L9.50958 59.9434L8.95232 58.9661L8.36013 57.1025L5.5494 55.6389L6.1218 54.2666L6.66856 54.7477L7.40787 55.1578L7.55993 54.2717L7.57013 53.6082L6.39534 49.4608L8.13729 43.9207L7.56488 38.9225L10.2235 36.902L10.8921 36.2943L11.2769 35.7625L11.9046 34.618L12.7604 34.2483L13.0643 33.0432L13.0389 32.4405L12.4872 31.924L12.0718 30.5212L12.2084 28.7387L12.3454 27.9943L12.634 26.632L13.5656 26.1255L13.7835 25.7205L13.0643 24.8595L13.1301 24.343L14.7101 22.8997L15.3329 22.4693L16.3559 22.0236L17.1561 22.0287L18.0775 22.282L18.903 22.6871L19.7032 23.4213L20.5488 24.2569L21.8451 24.5759L22.7263 24.4949L23.4455 24.8646L24.0531 24.662L24.7418 24.2316L25.8458 24.2569L26.8382 23.7707L29.6638 23.5379L32.3883 23.6847L35.234 23.2796L38.075 23.3099L40.941 23.3403L41.574 23.4011L42.1968 23.6544L44.6126 24.9304L46.4457 25.1938L50.1271 25.5432L54.0514 25.918L57.4543 26.2369L60.3408 25.9331L62.7361 25.6851L63.3843 25.7256L64.1084 26.5156L65.5515 28.4854L66.9139 30.3388L69.299 30.4402L70.8284 29.7414L72.5094 28.7589L73.5374 27.9994L74.7273 24.9811L75.4973 23.0263L77.2645 20.8235L78.7432 18.9802L80.6978 16.5343L81.7814 15.1822L83.9183 12.5083L85.9592 11.4651L89.8989 9.45464L93.7627 7.47464L96.2795 6.18327L98.4214 5.59585L102.012 5.08942L106.23 4.49195L110.448 3.89433L114.95 3.26132L119.963 2.55228L123.402 2.06624L127.782 1.44328L131.428 0.926795L134.669 0.471048L138.006 0L138.634 1.48887L139.262 2.97774L139.895 4.46661L140.523 5.95532L141.15 7.44419L141.779 8.93306L142.406 10.4168L143.039 11.9006L143.667 13.3844L144.295 14.8681L144.923 16.3519L145.556 17.8357L146.184 19.3143L146.812 20.7932L147.44 22.2718L148.068 23.7505L148.686 25.1938L149.698 25.6749L150.301 27.0421L151.162 28.9918L152.028 30.9365L152.889 32.8811L153.739 34.8308ZM4.5823 54.5958L4.13661 54.9199L4 54.3527L4.29362 53.0766L4.75971 52.7069L5.07342 53.6538L4.87098 54.1754L4.5823 54.5958ZM7.38252 74.0367L7.19522 74.3456L6.93715 74.2798L6.05597 73.5051L7.02307 72.6392L7.53954 73.4443L7.38252 74.0367ZM6.93189 77.9259L5.99014 78.3716L6.63333 77.217L7.29166 76.979L7.4737 77.0246L6.93189 77.9259ZM163.366 93.4068L164.247 93.579L165.579 93.0776L169.397 93.0118L174 94.6221L173.129 95.0425L172.613 95.6248L170.592 96.1566L168.577 97.3973L162.743 98L161.031 97.6657L159.624 96.4655L157.016 94.9057L158.044 93.9082L158.266 93.4524L158.651 93.0169L160.125 92.2624L161.599 92.3839L163.366 93.4068Z" fill="#F99B27"/>
</g>
<defs>
<filter id="filter0_d_16_2" x="0" y="0" width="178" height="106" filterUnits="userSpaceOnUse" color-interpolation-filters="sRGB">
<feFlood flood-opacity="0" result="BackgroundImageFix"/>
<feColorMatrix in="SourceAlpha" type="matrix" values="0 0 0 0 0 0 0 0 0 0 0 0 0 0 0 0 0 0 127 0" result="hardAlpha"/>
<feOffset dy="4"/>
<feGaussianBlur stdDeviation="2"/>
<feComposite in2="hardAlpha" operator="out"/>
<feColorMatrix type="matrix" values="0 0 0 0 0 0 0 0 0 0 0 0 0 0 0 0 0 0 0.25 0"/>
<feBlend mode="normal" in2="BackgroundImageFix" result="effect1_dropShadow_16_2"/>
<feBlend mode="normal" in="SourceGraphic" in2="effect1_dropShadow_16_2" result="shape"/>
</filter>
</defs>
</svg>
