<svg width="55" height="84" viewBox="0 0 55 84" fill="none" xmlns="http://www.w3.org/2000/svg">
<g filter="url(#filter0_d_12_2)">
<mask id="path-1-inside-1_12_2" fill="white">
<path d="M50.6353 45.2151L50.6105 45.4945L50.2003 47.5047L50.1092 48.2256L50.0469 49.4482V50.9154L50.9751 52.1539L51 52.6969L50.6395 53.3257L48.9282 54.0435L46.7198 54.9707L44.822 55.8504L42.7419 56.8158L42.1038 57.4382L41.0721 57.9178L40.2102 58.3973L40.0528 58.8577L39.4479 59.7247L38.6606 60.417L36.684 60.7441L36.3195 60.9505L35.4037 61.9921L34.9811 62.3986L34.459 63.2529L35.1302 65.4631L35.9507 67.7306L36.1124 68.6737L36.0998 69.4581L35.6399 70.3028L34.5875 71.5096L33.8168 72.3956L32.3376 73.9866L31.9024 74.3804L30.8831 74.844L28.9149 75.4569L27.5269 76L26.8225 73.5738L26.2176 71.5L25.7203 69.7852L24.846 66.7588L24.1002 64.1801L23.3586 61.6047L22.6831 59.261L22.0035 56.8951L21.7136 56.5491L19.6791 55.4312L17.8061 54.3991L15.8546 53.2242L13.7414 51.9507L13.4016 50.3438L12.316 47.9113L11.1724 46.552L10.7415 46.1964L8.43348 45.3167L7.10347 44.6689L6.73879 44.2909L6.48197 43.297L5.53309 41.3154L4.45155 39.5116L4.05374 38.289L4 36.7487L4.2113 35.6341L4.68359 35.1577L6.9377 33.7668L7.98193 32.0932L9.27463 31.4644L10.3935 30.9913L11.3009 30.4387L12.1047 29.5527L12.7179 28.6064L12.8216 27.5806L13.0784 25.9515L13.4886 24.8114L14.4416 23.519L14.0397 22.4774L13.5342 21.3532L13.6793 19.4002L13.5508 18.6062L13.1406 17.9044L12.722 17.0025L12.7097 16.2499L13.1115 14.2714L13.4182 12.7566L13.9071 10.7845L13.7331 10.2319L13.3685 9.81918L12.2745 9.38404L12.2621 9.12053L12.5273 8.82834L14.1434 7.86289L15.0093 6.44339L15.7344 6.1481L16.8366 5.63359L16.7951 5.08108L16.5465 4.48719L19.418 3.81713L22.1527 2.05786L23.1182 1.62592L29.4661 0L30.2906 0.11116L31.2147 0.349276L30.9495 0.955858L30.5848 1.43539L31.1235 2.28328L31.8942 1.76567L31.6995 1.41949L31.6538 0.959057L32.9591 0.917771L34.1151 0.990747L35.383 1.49576L35.296 3.41068L36.9866 5.28111L36.51 6.21158L37.894 6.76098L39.1247 6.10042L39.742 5.12547L42.0085 4.56027L44.1632 3.12488L45.3565 2.97874L45.6259 4.15691L46.2018 5.18584L45.3855 5.54791L44.3496 6.64032L42.3814 9.40313L40.5707 10.2129L39.2117 11.2736L38.7725 12.0262L38.6398 12.9027L38.9796 14.4715L39.97 16.0625L41.1135 17.0215L42.2157 17.3201L44.7805 18.8317L44.7391 19.7272L45.0955 20.7911L45.2322 22.0836L46.1231 23.1156L44.2171 25.3576L43.1728 26.974L41.1342 29.1971L39.3194 30.6388L35.4328 32.776L34.4798 33.4842L33.8582 34.2178L33.5723 34.9831L33.6759 35.8818L34.9562 38.0889L36.6593 39.3877L38.3912 40.0896L41.4035 39.807L41.3 40.6548L41.5155 41.6679L42.7379 41.6202L43.5583 41.4615L44.2502 40.4738L45.7212 41.1503L46.4877 43.208L47.7349 43.8495L47.88 44.0877L47.4407 44.2465L47.0967 44.4815L47.4656 44.6498L48.6713 44.9038L49.4005 44.7419L50.6353 45.2151ZM48.0001 28.4031L46.2059 29.1812L46.5498 28.5047L47.7349 27.6854L48.0416 27.8823L48.0001 28.4031ZM44.275 39.4735L43.9685 39.5243L43.4049 39.8133L43.1066 39.845L42.2613 39.518L41.9381 39.5212L41.532 39.2924L41.6687 38.0476L41.8014 37.6951L43.8566 37.6474L44.9711 38.3938L45.1534 38.5907L45.1991 38.8034L44.6811 39.2195L44.275 39.4735Z"/>
</mask>
<path d="M50.6353 45.2151L50.6105 45.4945L50.2003 47.5047L50.1092 48.2256L50.0469 49.4482V50.9154L50.9751 52.1539L51 52.6969L50.6395 53.3257L48.9282 54.0435L46.7198 54.9707L44.822 55.8504L42.7419 56.8158L42.1038 57.4382L41.0721 57.9178L40.2102 58.3973L40.0528 58.8577L39.4479 59.7247L38.6606 60.417L36.684 60.7441L36.3195 60.9505L35.4037 61.9921L34.9811 62.3986L34.459 63.2529L35.1302 65.4631L35.9507 67.7306L36.1124 68.6737L36.0998 69.4581L35.6399 70.3028L34.5875 71.5096L33.8168 72.3956L32.3376 73.9866L31.9024 74.3804L30.8831 74.844L28.9149 75.4569L27.5269 76L26.8225 73.5738L26.2176 71.5L25.7203 69.7852L24.846 66.7588L24.1002 64.1801L23.3586 61.6047L22.6831 59.261L22.0035 56.8951L21.7136 56.5491L19.6791 55.4312L17.8061 54.3991L15.8546 53.2242L13.7414 51.9507L13.4016 50.3438L12.316 47.9113L11.1724 46.552L10.7415 46.1964L8.43348 45.3167L7.10347 44.6689L6.73879 44.2909L6.48197 43.297L5.53309 41.3154L4.45155 39.5116L4.05374 38.289L4 36.7487L4.2113 35.6341L4.68359 35.1577L6.9377 33.7668L7.98193 32.0932L9.27463 31.4644L10.3935 30.9913L11.3009 30.4387L12.1047 29.5527L12.7179 28.6064L12.8216 27.5806L13.0784 25.9515L13.4886 24.8114L14.4416 23.519L14.0397 22.4774L13.5342 21.3532L13.6793 19.4002L13.5508 18.6062L13.1406 17.9044L12.722 17.0025L12.7097 16.2499L13.1115 14.2714L13.4182 12.7566L13.9071 10.7845L13.7331 10.2319L13.3685 9.81918L12.2745 9.38404L12.2621 9.12053L12.5273 8.82834L14.1434 7.86289L15.0093 6.44339L15.7344 6.1481L16.8366 5.63359L16.7951 5.08108L16.5465 4.48719L19.418 3.81713L22.1527 2.05786L23.1182 1.62592L29.4661 0L30.2906 0.11116L31.2147 0.349276L30.9495 0.955858L30.5848 1.43539L31.1235 2.28328L31.8942 1.76567L31.6995 1.41949L31.6538 0.959057L32.9591 0.917771L34.1151 0.990747L35.383 1.49576L35.296 3.41068L36.9866 5.28111L36.51 6.21158L37.894 6.76098L39.1247 6.10042L39.742 5.12547L42.0085 4.56027L44.1632 3.12488L45.3565 2.97874L45.6259 4.15691L46.2018 5.18584L45.3855 5.54791L44.3496 6.64032L42.3814 9.40313L40.5707 10.2129L39.2117 11.2736L38.7725 12.0262L38.6398 12.9027L38.9796 14.4715L39.97 16.0625L41.1135 17.0215L42.2157 17.3201L44.7805 18.8317L44.7391 19.7272L45.0955 20.7911L45.2322 22.0836L46.1231 23.1156L44.2171 25.3576L43.1728 26.974L41.1342 29.1971L39.3194 30.6388L35.4328 32.776L34.4798 33.4842L33.8582 34.2178L33.5723 34.9831L33.6759 35.8818L34.9562 38.0889L36.6593 39.3877L38.3912 40.0896L41.4035 39.807L41.3 40.6548L41.5155 41.6679L42.7379 41.6202L43.5583 41.4615L44.2502 40.4738L45.7212 41.1503L46.4877 43.208L47.7349 43.8495L47.88 44.0877L47.4407 44.2465L47.0967 44.4815L47.4656 44.6498L48.6713 44.9038L49.4005 44.7419L50.6353 45.2151ZM48.0001 28.4031L46.2059 29.1812L46.5498 28.5047L47.7349 27.6854L48.0416 27.8823L48.0001 28.4031ZM44.275 39.4735L43.9685 39.5243L43.4049 39.8133L43.1066 39.845L42.2613 39.518L41.9381 39.5212L41.532 39.2924L41.6687 38.0476L41.8014 37.6951L43.8566 37.6474L44.9711 38.3938L45.1534 38.5907L45.1991 38.8034L44.6811 39.2195L44.275 39.4735Z" fill="#F99B27"/>
<path d="M50.6353 45.2151L50.6105 45.4945L50.2003 47.5047L50.1092 48.2256L50.0469 49.4482V50.9154L50.9751 52.1539L51 52.6969L50.6395 53.3257L48.9282 54.0435L46.7198 54.9707L44.822 55.8504L42.7419 56.8158L42.1038 57.4382L41.0721 57.9178L40.2102 58.3973L40.0528 58.8577L39.4479 59.7247L38.6606 60.417L36.684 60.7441L36.3195 60.9505L35.4037 61.9921L34.9811 62.3986L34.459 63.2529L35.1302 65.4631L35.9507 67.7306L36.1124 68.6737L36.0998 69.4581L35.6399 70.3028L34.5875 71.5096L33.8168 72.3956L32.3376 73.9866L31.9024 74.3804L30.8831 74.844L28.9149 75.4569L27.5269 76L26.8225 73.5738L26.2176 71.5L25.7203 69.7852L24.846 66.7588L24.1002 64.1801L23.3586 61.6047L22.6831 59.261L22.0035 56.8951L21.7136 56.5491L19.6791 55.4312L17.8061 54.3991L15.8546 53.2242L13.7414 51.9507L13.4016 50.3438L12.316 47.9113L11.1724 46.552L10.7415 46.1964L8.43348 45.3167L7.10347 44.6689L6.73879 44.2909L6.48197 43.297L5.53309 41.3154L4.45155 39.5116L4.05374 38.289L4 36.7487L4.2113 35.6341L4.68359 35.1577L6.9377 33.7668L7.98193 32.0932L9.27463 31.4644L10.3935 30.9913L11.3009 30.4387L12.1047 29.5527L12.7179 28.6064L12.8216 27.5806L13.0784 25.9515L13.4886 24.8114L14.4416 23.519L14.0397 22.4774L13.5342 21.3532L13.6793 19.4002L13.5508 18.6062L13.1406 17.9044L12.722 17.0025L12.7097 16.2499L13.1115 14.2714L13.4182 12.7566L13.9071 10.7845L13.7331 10.2319L13.3685 9.81918L12.2745 9.38404L12.2621 9.12053L12.5273 8.82834L14.1434 7.86289L15.0093 6.44339L15.7344 6.1481L16.8366 5.63359L16.7951 5.08108L16.5465 4.48719L19.418 3.81713L22.1527 2.05786L23.1182 1.62592L29.4661 0L30.2906 0.11116L31.2147 0.349276L30.9495 0.955858L30.5848 1.43539L31.1235 2.28328L31.8942 1.76567L31.6995 1.41949L31.6538 0.959057L32.9591 0.917771L34.1151 0.990747L35.383 1.49576L35.296 3.41068L36.9866 5.28111L36.51 6.21158L37.894 6.76098L39.1247 6.10042L39.742 5.12547L42.0085 4.56027L44.1632 3.12488L45.3565 2.97874L45.6259 4.15691L46.2018 5.18584L45.3855 5.54791L44.3496 6.64032L42.3814 9.40313L40.5707 10.2129L39.2117 11.2736L38.7725 12.0262L38.6398 12.9027L38.9796 14.4715L39.97 16.0625L41.1135 17.0215L42.2157 17.3201L44.7805 18.8317L44.7391 19.7272L45.0955 20.7911L45.2322 22.0836L46.1231 23.1156L44.2171 25.3576L43.1728 26.974L41.1342 29.1971L39.3194 30.6388L35.4328 32.776L34.4798 33.4842L33.8582 34.2178L33.5723 34.9831L33.6759 35.8818L34.9562 38.0889L36.6593 39.3877L38.3912 40.0896L41.4035 39.807L41.3 40.6548L41.5155 41.6679L42.7379 41.6202L43.5583 41.4615L44.2502 40.4738L45.7212 41.1503L46.4877 43.208L47.7349 43.8495L47.88 44.0877L47.4407 44.2465L47.0967 44.4815L47.4656 44.6498L48.6713 44.9038L49.4005 44.7419L50.6353 45.2151ZM48.0001 28.4031L46.2059 29.1812L46.5498 28.5047L47.7349 27.6854L48.0416 27.8823L48.0001 28.4031ZM44.275 39.4735L43.9685 39.5243L43.4049 39.8133L43.1066 39.845L42.2613 39.518L41.9381 39.5212L41.532 39.2924L41.6687 38.0476L41.8014 37.6951L43.8566 37.6474L44.9711 38.3938L45.1534 38.5907L45.1991 38.8034L44.6811 39.2195L44.275 39.4735Z" stroke="black" stroke-width="2" mask="url(#path-1-inside-1_12_2)"/>
</g>
<defs>
<filter id="filter0_d_12_2" x="0" y="0" width="55" height="84" filterUnits="userSpaceOnUse" color-interpolation-filters="sRGB">
<feFlood flood-opacity="0" result="BackgroundImageFix"/>
<feColorMatrix in="SourceAlpha" type="matrix" values="0 0 0 0 0 0 0 0 0 0 0 0 0 0 0 0 0 0 127 0" result="hardAlpha"/>
<feOffset dy="4"/>
<feGaussianBlur stdDeviation="2"/>
<feComposite in2="hardAlpha" operator="out"/>
<feColorMatrix type="matrix" values="0 0 0 0 0 0 0 0 0 0 0 0 0 0 0 0 0 0 0.25 0"/>
<feBlend mode="normal" in2="BackgroundImageFix" result="effect1_dropShadow_12_2"/>
<feBlend mode="normal" in="SourceGraphic" in2="effect1_dropShadow_12_2" result="shape"/>
</filter>
</defs>
</svg>
