<svg width="76" height="124" viewBox="0 0 76 124" fill="none" xmlns="http://www.w3.org/2000/svg">
<g filter="url(#filter0_d_12_2)">
<mask id="path-1-inside-1_12_2" fill="white">
<path d="M71.4724 69.0125L71.4365 69.439L70.843 72.5072L70.7111 73.6076L70.6211 75.4736V77.7129L71.964 79.6034L72 80.4322L71.4784 81.3919L69.0026 82.4874L65.8073 83.9027L63.0616 85.2454L60.0521 86.7188L59.1289 87.6689L57.6363 88.4008L56.3893 89.1327L56.1615 89.8355L55.2863 91.1588L54.1472 92.2154L51.2875 92.7146L50.7601 93.0297L49.4352 94.6195L48.8238 95.2399L48.0684 96.5438L49.0395 99.9173L50.2266 103.378L50.4604 104.818L50.4423 106.015L49.7769 107.304L48.2542 109.146L47.1392 110.499L44.999 112.927L44.3695 113.528L42.8947 114.236L40.0471 115.171L38.0389 116L37.0198 112.297L36.1446 109.132L35.4251 106.514L34.1602 101.895L33.0811 97.9592L32.0081 94.0282L31.0308 90.451L30.0476 86.84L29.6281 86.3117L26.6847 84.6055L23.9748 83.0303L21.1513 81.2369L18.0939 79.2932L17.6023 76.8405L16.0317 73.1277L14.3771 71.0531L13.7536 70.5102L10.4144 69.1676L8.49013 68.1789L7.96251 67.602L7.59094 66.0849L6.21808 63.0604L4.65331 60.3071L4.07775 58.4411L4 56.0902L4.30571 54.389L4.98903 53.6618L8.25029 51.5388L9.76108 48.9844L11.6314 48.0247L13.2501 47.3025L14.563 46.4591L15.726 45.1068L16.6131 43.6623L16.7631 42.0968L17.1347 39.6102L17.7282 37.8701L19.1071 35.8974L18.5255 34.3075L17.7942 32.5917L18.0041 29.6108L17.8182 28.399L17.2247 27.3278L16.6191 25.9512L16.6012 24.8025L17.1826 21.7827L17.6263 19.4707L18.3337 16.4606L18.082 15.6172L17.5544 14.9872L15.9717 14.323L15.9537 13.9208L16.3374 13.4748L18.6755 12.0013L19.9283 9.83466L20.9774 9.38394L22.5721 8.59863L22.5121 7.75533L22.1524 6.84888L26.3069 5.82615L30.2635 3.14095L31.6603 2.48167L40.8446 0L42.0374 0.169665L43.3744 0.533106L42.9908 1.45894L42.4631 2.19085L43.2425 3.48501L44.3576 2.69497L44.0758 2.16659L44.0098 1.46382L45.8982 1.40081L47.5707 1.51219L49.4052 2.28301L49.2793 5.20577L51.7253 8.06064L51.0358 9.48083L53.0382 10.3194L54.8187 9.31116L55.7118 7.82308L58.991 6.96041L62.1085 4.76956L63.835 4.54649L64.2246 6.34476L65.058 7.91524L63.8769 8.46787L62.3781 10.1352L59.5305 14.3522L56.9109 15.5882L54.9445 17.207L54.3091 18.3558L54.1172 19.6936L54.6088 22.0881L56.0417 24.5164L57.6961 25.9802L59.2909 26.4359L63.0016 28.7431L62.9416 30.11L63.4573 31.7337L63.6551 33.7065L64.944 35.2817L62.1864 38.7037L60.6756 41.1709L57.7261 44.5639L55.1004 46.7645L49.4773 50.0265L48.0984 51.1075L47.1992 52.2271L46.7855 53.3952L46.9354 54.7669L48.7877 58.1356L51.2517 60.1181L53.7575 61.1893L58.1158 60.758L57.9659 62.0521L58.2777 63.5984L60.0463 63.5256L61.2332 63.2833L62.2343 61.7758L64.3626 62.8083L65.4716 65.9491L67.2761 66.9282L67.4859 67.2918L66.8503 67.5341L66.3527 67.8928L66.8864 68.1497L68.6308 68.5374L69.6859 68.2903L71.4724 69.0125ZM67.6597 43.3522L65.0638 44.5397L65.5615 43.5072L67.2761 42.2567L67.7197 42.5572L67.6597 43.3522ZM62.2702 60.249L61.8267 60.3265L61.0113 60.7676L60.5797 60.8161L59.3567 60.3169L58.8891 60.3218L58.3016 59.9727L58.4994 58.0726L58.6913 57.5346L61.6648 57.4619L63.2773 58.601L63.5411 58.9016L63.6072 59.2263L62.8578 59.8613L62.2702 60.249Z"/>
</mask>
<path d="M71.4724 69.0125L71.4365 69.439L70.843 72.5072L70.7111 73.6076L70.6211 75.4736V77.7129L71.964 79.6034L72 80.4322L71.4784 81.3919L69.0026 82.4874L65.8073 83.9027L63.0616 85.2454L60.0521 86.7188L59.1289 87.6689L57.6363 88.4008L56.3893 89.1327L56.1615 89.8355L55.2863 91.1588L54.1472 92.2154L51.2875 92.7146L50.7601 93.0297L49.4352 94.6195L48.8238 95.2399L48.0684 96.5438L49.0395 99.9173L50.2266 103.378L50.4604 104.818L50.4423 106.015L49.7769 107.304L48.2542 109.146L47.1392 110.499L44.999 112.927L44.3695 113.528L42.8947 114.236L40.0471 115.171L38.0389 116L37.0198 112.297L36.1446 109.132L35.4251 106.514L34.1602 101.895L33.0811 97.9592L32.0081 94.0282L31.0308 90.451L30.0476 86.84L29.6281 86.3117L26.6847 84.6055L23.9748 83.0303L21.1513 81.2369L18.0939 79.2932L17.6023 76.8405L16.0317 73.1277L14.3771 71.0531L13.7536 70.5102L10.4144 69.1676L8.49013 68.1789L7.96251 67.602L7.59094 66.0849L6.21808 63.0604L4.65331 60.3071L4.07775 58.4411L4 56.0902L4.30571 54.389L4.98903 53.6618L8.25029 51.5388L9.76108 48.9844L11.6314 48.0247L13.2501 47.3025L14.563 46.4591L15.726 45.1068L16.6131 43.6623L16.7631 42.0968L17.1347 39.6102L17.7282 37.8701L19.1071 35.8974L18.5255 34.3075L17.7942 32.5917L18.0041 29.6108L17.8182 28.399L17.2247 27.3278L16.6191 25.9512L16.6012 24.8025L17.1826 21.7827L17.6263 19.4707L18.3337 16.4606L18.082 15.6172L17.5544 14.9872L15.9717 14.323L15.9537 13.9208L16.3374 13.4748L18.6755 12.0013L19.9283 9.83466L20.9774 9.38394L22.5721 8.59863L22.5121 7.75533L22.1524 6.84888L26.3069 5.82615L30.2635 3.14095L31.6603 2.48167L40.8446 0L42.0374 0.169665L43.3744 0.533106L42.9908 1.45894L42.4631 2.19085L43.2425 3.48501L44.3576 2.69497L44.0758 2.16659L44.0098 1.46382L45.8982 1.40081L47.5707 1.51219L49.4052 2.28301L49.2793 5.20577L51.7253 8.06064L51.0358 9.48083L53.0382 10.3194L54.8187 9.31116L55.7118 7.82308L58.991 6.96041L62.1085 4.76956L63.835 4.54649L64.2246 6.34476L65.058 7.91524L63.8769 8.46787L62.3781 10.1352L59.5305 14.3522L56.9109 15.5882L54.9445 17.207L54.3091 18.3558L54.1172 19.6936L54.6088 22.0881L56.0417 24.5164L57.6961 25.9802L59.2909 26.4359L63.0016 28.7431L62.9416 30.11L63.4573 31.7337L63.6551 33.7065L64.944 35.2817L62.1864 38.7037L60.6756 41.1709L57.7261 44.5639L55.1004 46.7645L49.4773 50.0265L48.0984 51.1075L47.1992 52.2271L46.7855 53.3952L46.9354 54.7669L48.7877 58.1356L51.2517 60.1181L53.7575 61.1893L58.1158 60.758L57.9659 62.0521L58.2777 63.5984L60.0463 63.5256L61.2332 63.2833L62.2343 61.7758L64.3626 62.8083L65.4716 65.9491L67.2761 66.9282L67.4859 67.2918L66.8503 67.5341L66.3527 67.8928L66.8864 68.1497L68.6308 68.5374L69.6859 68.2903L71.4724 69.0125ZM67.6597 43.3522L65.0638 44.5397L65.5615 43.5072L67.2761 42.2567L67.7197 42.5572L67.6597 43.3522ZM62.2702 60.249L61.8267 60.3265L61.0113 60.7676L60.5797 60.8161L59.3567 60.3169L58.8891 60.3218L58.3016 59.9727L58.4994 58.0726L58.6913 57.5346L61.6648 57.4619L63.2773 58.601L63.5411 58.9016L63.6072 59.2263L62.8578 59.8613L62.2702 60.249Z" fill="#F99B27"/>
<path d="M71.4724 69.0125L71.4365 69.439L70.843 72.5072L70.7111 73.6076L70.6211 75.4736V77.7129L71.964 79.6034L72 80.4322L71.4784 81.3919L69.0026 82.4874L65.8073 83.9027L63.0616 85.2454L60.0521 86.7188L59.1289 87.6689L57.6363 88.4008L56.3893 89.1327L56.1615 89.8355L55.2863 91.1588L54.1472 92.2154L51.2875 92.7146L50.7601 93.0297L49.4352 94.6195L48.8238 95.2399L48.0684 96.5438L49.0395 99.9173L50.2266 103.378L50.4604 104.818L50.4423 106.015L49.7769 107.304L48.2542 109.146L47.1392 110.499L44.999 112.927L44.3695 113.528L42.8947 114.236L40.0471 115.171L38.0389 116L37.0198 112.297L36.1446 109.132L35.4251 106.514L34.1602 101.895L33.0811 97.9592L32.0081 94.0282L31.0308 90.451L30.0476 86.84L29.6281 86.3117L26.6847 84.6055L23.9748 83.0303L21.1513 81.2369L18.0939 79.2932L17.6023 76.8405L16.0317 73.1277L14.3771 71.0531L13.7536 70.5102L10.4144 69.1676L8.49013 68.1789L7.96251 67.602L7.59094 66.0849L6.21808 63.0604L4.65331 60.3071L4.07775 58.4411L4 56.0902L4.30571 54.389L4.98903 53.6618L8.25029 51.5388L9.76108 48.9844L11.6314 48.0247L13.2501 47.3025L14.563 46.4591L15.726 45.1068L16.6131 43.6623L16.7631 42.0968L17.1347 39.6102L17.7282 37.8701L19.1071 35.8974L18.5255 34.3075L17.7942 32.5917L18.0041 29.6108L17.8182 28.399L17.2247 27.3278L16.6191 25.9512L16.6012 24.8025L17.1826 21.7827L17.6263 19.4707L18.3337 16.4606L18.082 15.6172L17.5544 14.9872L15.9717 14.323L15.9537 13.9208L16.3374 13.4748L18.6755 12.0013L19.9283 9.83466L20.9774 9.38394L22.5721 8.59863L22.5121 7.75533L22.1524 6.84888L26.3069 5.82615L30.2635 3.14095L31.6603 2.48167L40.8446 0L42.0374 0.169665L43.3744 0.533106L42.9908 1.45894L42.4631 2.19085L43.2425 3.48501L44.3576 2.69497L44.0758 2.16659L44.0098 1.46382L45.8982 1.40081L47.5707 1.51219L49.4052 2.28301L49.2793 5.20577L51.7253 8.06064L51.0358 9.48083L53.0382 10.3194L54.8187 9.31116L55.7118 7.82308L58.991 6.96041L62.1085 4.76956L63.835 4.54649L64.2246 6.34476L65.058 7.91524L63.8769 8.46787L62.3781 10.1352L59.5305 14.3522L56.9109 15.5882L54.9445 17.207L54.3091 18.3558L54.1172 19.6936L54.6088 22.0881L56.0417 24.5164L57.6961 25.9802L59.2909 26.4359L63.0016 28.7431L62.9416 30.11L63.4573 31.7337L63.6551 33.7065L64.944 35.2817L62.1864 38.7037L60.6756 41.1709L57.7261 44.5639L55.1004 46.7645L49.4773 50.0265L48.0984 51.1075L47.1992 52.2271L46.7855 53.3952L46.9354 54.7669L48.7877 58.1356L51.2517 60.1181L53.7575 61.1893L58.1158 60.758L57.9659 62.0521L58.2777 63.5984L60.0463 63.5256L61.2332 63.2833L62.2343 61.7758L64.3626 62.8083L65.4716 65.9491L67.2761 66.9282L67.4859 67.2918L66.8503 67.5341L66.3527 67.8928L66.8864 68.1497L68.6308 68.5374L69.6859 68.2903L71.4724 69.0125ZM67.6597 43.3522L65.0638 44.5397L65.5615 43.5072L67.2761 42.2567L67.7197 42.5572L67.6597 43.3522ZM62.2702 60.249L61.8267 60.3265L61.0113 60.7676L60.5797 60.8161L59.3567 60.3169L58.8891 60.3218L58.3016 59.9727L58.4994 58.0726L58.6913 57.5346L61.6648 57.4619L63.2773 58.601L63.5411 58.9016L63.6072 59.2263L62.8578 59.8613L62.2702 60.249Z" stroke="black" stroke-width="2" mask="url(#path-1-inside-1_12_2)"/>
</g>
<defs>
<filter id="filter0_d_12_2" x="0" y="0" width="76" height="124" filterUnits="userSpaceOnUse" color-interpolation-filters="sRGB">
<feFlood flood-opacity="0" result="BackgroundImageFix"/>
<feColorMatrix in="SourceAlpha" type="matrix" values="0 0 0 0 0 0 0 0 0 0 0 0 0 0 0 0 0 0 127 0" result="hardAlpha"/>
<feOffset dy="4"/>
<feGaussianBlur stdDeviation="2"/>
<feComposite in2="hardAlpha" operator="out"/>
<feColorMatrix type="matrix" values="0 0 0 0 0 0 0 0 0 0 0 0 0 0 0 0 0 0 0.25 0"/>
<feBlend mode="normal" in2="BackgroundImageFix" result="effect1_dropShadow_12_2"/>
<feBlend mode="normal" in="SourceGraphic" in2="effect1_dropShadow_12_2" result="shape"/>
</filter>
</defs>
</svg>
